<svg width="481" height="141" viewBox="0 0 481 141" fill="none" xmlns="http://www.w3.org/2000/svg">
<g clip-path="url(#clip0_2360_430)">
<path d="M312.798 76.4318C312.798 79.6542 312.713 83.5524 312.557 88.1386C312.4 92.7247 312.11 97.516 311.712 102.5C311.313 107.412 310.71 112.071 309.901 116.5C309.177 120.845 308.212 124.466 307.005 127.362C305.557 130.826 303.589 133.723 301.091 136.052C298.677 138.309 295.455 139.431 291.436 139.431C289.747 139.431 287.731 138.791 285.402 137.5C283.073 136.209 280.852 134.724 278.764 133.035C276.676 131.345 275.023 129.897 273.816 128.69C273.49 128.207 273.333 127.845 273.333 127.604C273.333 127.205 273.538 127 273.936 127C274.661 127 275.783 127.362 277.316 128.086C278.848 128.81 280.611 129.571 282.626 130.379C284.641 131.104 286.572 131.466 288.419 131.466C290.99 131.466 293.005 130.621 294.453 128.931C295.902 127.242 296.988 125.226 297.712 122.897C298.436 120.567 298.955 118.395 299.281 116.38C300.162 110.587 300.765 104.757 301.091 98.8798C301.417 92.9299 301.695 87.0162 301.936 81.1387H278.161C277.038 89.5024 275.18 97.2264 272.609 104.311C270.038 111.311 266.369 117.623 261.626 123.259C256.883 128.895 250.644 133.759 242.92 137.862C241.797 138.429 240.301 139.105 238.454 139.914C236.608 140.638 235.075 141 233.868 141C232.094 141 230.573 140.397 229.282 139.19C227.991 137.983 227.351 136.45 227.351 134.604C227.351 132.757 227.991 131.26 229.282 129.897C230.646 128.448 232.215 127.724 233.989 127.724C235.763 127.724 237.211 128.448 238.575 129.897C239.939 131.26 240.627 132.793 240.627 134.483C240.627 134.724 240.591 134.966 240.506 135.207V135.931C246.384 131.912 251.127 126.964 254.747 121.086C258.452 115.209 261.228 108.897 263.075 102.138C265.006 95.2954 266.249 88.5006 266.816 81.7421L237.73 81.9835L237.851 76.5525H267.54C267.697 73.1732 267.818 69.794 267.902 66.4147C268.059 63.0354 268.18 59.6562 268.264 56.2769H280.333L278.643 76.5525H295.781C301.489 76.468 307.162 76.4318 312.798 76.4318Z" fill="black"/>
<path d="M222.524 76.9146C222.524 78.5197 221.884 80.0163 220.593 81.38C219.301 82.6714 217.853 83.3111 216.248 83.3111H195.852C195.526 89.6713 194.765 95.4644 193.559 100.69C192.436 105.916 190.505 110.792 187.766 115.293C185.11 119.795 181.285 124.261 176.3 128.69C172.837 131.671 168.781 134.085 164.111 135.931C159.525 137.705 154.975 139.069 150.473 140.034C149.423 140.276 148.385 140.481 147.335 140.638C146.285 140.879 145.199 141 144.077 141C142.303 141 140.734 140.397 139.37 139.19C138.079 137.983 137.439 136.498 137.439 134.724C137.439 132.95 138.079 131.345 139.37 129.897C140.734 128.448 142.303 127.724 144.077 127.724C145.851 127.724 147.456 128.448 148.663 129.897C149.954 131.345 150.594 132.95 150.594 134.724C150.594 135.05 150.558 135.412 150.473 135.81C150.473 136.209 150.437 136.619 150.352 137.017C158.161 134.362 164.63 130.343 169.783 124.948C174.936 119.481 178.799 113.157 181.369 106C184.024 98.7591 185.388 91.192 185.473 83.3111H157.956V108.414H147.456V83.3111H126.939V78.0008H147.456V55.5528H158.076V78.0008H185.473V54.4666H196.214V78.0008H209.489C209.405 77.7594 209.369 77.3973 209.369 76.9146C209.369 75.1405 210.008 73.5353 211.3 72.0871C212.591 70.6388 214.112 69.9147 215.886 69.9147C217.66 69.9147 219.301 70.6388 220.593 72.0871C221.884 73.5353 222.524 75.1405 222.524 76.9146Z" fill="black"/>
<path d="M54.3697 86.1231C51.4973 83.8179 49.3129 81.0059 47.8164 77.6628C46.4405 74.2112 45.463 70.5905 44.8837 66.7888C44.4251 62.9872 44.1957 59.3665 44.1957 55.9148C38.439 58.5579 33.1528 62.1906 28.3133 66.7888C23.4858 71.2784 19.6238 76.456 16.7514 82.3214C13.9877 88.1868 12.6118 94.4626 12.6118 101.137C12.6118 103.442 13.2997 105.626 14.6877 107.69C16.1842 109.766 18.1997 110.792 20.7341 110.792C23.0392 110.792 25.7426 109.875 28.8443 108.028C32.0667 106.073 35.289 103.719 38.5114 100.956C41.8423 98.1919 44.8957 95.4885 47.6595 92.8454C50.5318 90.0817 52.7766 87.8369 54.3938 86.111L54.3697 86.1231ZM119.082 84.5662C119.082 95.9592 116.029 105.675 109.934 113.737C103.84 121.678 95.9586 128.171 86.2915 133.24C84.5657 134.157 82.2123 135.195 79.2193 136.341C76.2262 137.609 73.1849 138.695 70.0711 139.624C67.0781 140.541 64.604 141 62.6489 141C61.0437 141 59.5955 140.372 58.3283 139.105C57.061 137.959 56.4335 136.571 56.4335 134.966C56.4335 133.131 57.061 131.574 58.3283 130.307C59.7041 128.931 61.3213 128.231 63.1558 128.231C65.5695 128.231 67.235 129.04 68.1643 130.645C69.0815 132.371 69.5401 134.217 69.5401 136.172C76.2141 132.841 82.0192 128.521 86.9674 123.223C91.9156 117.936 95.7655 111.95 98.5293 105.276C101.402 98.6022 102.85 91.5299 102.85 84.0472C102.85 78.2904 101.184 72.8836 97.8413 67.8268C94.619 62.7699 90.3587 59.0286 85.0726 56.6148C82.0795 55.239 78.9175 54.37 75.5866 54.0321C72.2556 53.5735 68.9125 53.3442 65.5816 53.3442C64.085 53.3442 62.5885 53.4045 61.092 53.5131C59.5955 53.6338 58.0386 53.8028 56.4335 54.0321C56.0835 59.5596 55.9145 65.0147 55.9145 70.4215C55.9145 72.4974 56.0352 74.5612 56.2645 76.637C56.6145 78.5921 57.1817 80.5473 57.9903 82.5024C61.9006 78.2421 65.473 73.5232 68.6953 68.3457L80.6072 76.106C73.4745 84.2766 65.5936 91.6989 56.9645 98.3729C48.3353 105.047 39.0786 110.683 29.1822 115.281C26.7685 116.428 24.234 117.466 21.591 118.383C19.0565 119.192 16.4738 119.59 13.8187 119.59C10.9463 119.59 8.47225 118.781 6.39642 117.176C4.3206 115.45 2.71545 113.326 1.56892 110.792C0.531011 108.257 0.0120544 105.675 0.0120544 103.031C0.0120544 94.2937 2.02754 86.461 6.04643 79.5576C10.186 72.6543 15.5928 66.7888 22.2668 61.9492C29.0495 57.1217 36.3631 53.4287 44.1837 50.9063C44.1837 46.8753 44.1233 42.8564 44.0147 38.8254C44.0147 34.6858 44.0751 30.5945 44.1837 26.5755L6.90331 27.4324V20.8791L44.1837 20.0101V10.005C44.1837 6.67406 44.244 3.33099 44.3526 0H59.5351C59.0765 3.22237 58.7869 6.50509 58.6662 9.83609C58.5455 13.0585 58.3765 16.3412 58.1472 19.6722L81.452 18.8032C81.3313 18.3446 81.2227 17.9463 81.102 17.5963V16.2205C81.102 13.9153 81.9589 11.8516 83.6847 10.005C85.4105 8.15852 87.426 7.24129 89.7191 7.24129C92.1328 7.24129 94.2086 8.11025 95.9345 9.83609C97.6603 11.4412 98.5172 13.4567 98.5172 15.8705C98.5172 18.2843 97.6 20.2394 95.7534 22.0859C93.9069 23.8118 91.8432 24.729 89.538 24.8497L57.7852 26.0566C57.6645 29.8583 57.4955 33.6479 57.2662 37.4495C57.0369 41.1305 56.8076 44.8719 56.5783 48.6615C58.5334 48.0822 60.4886 47.7442 62.4437 47.6236C64.5195 47.3942 66.5229 47.2736 68.4781 47.2736C72.847 47.2736 77.1676 47.3942 81.4158 47.6236C85.7847 47.8529 90.0449 48.7701 94.1845 50.3873C101.667 53.1511 107.641 57.52 112.131 63.5061C116.729 69.3716 119.034 76.3956 119.034 84.5662H119.082Z" fill="black"/>
<path d="M360.059 120.736C360.059 124.538 359.202 127.869 357.488 130.705C355.811 133.505 353.349 135.871 350.102 137.814C349.39 138.26 348.521 138.731 347.471 139.214C346.458 139.697 345.42 140.131 344.334 140.505C343.284 140.843 342.342 141.012 341.473 141.012C341.365 141.012 341.232 140.988 341.087 140.952C340.942 140.879 340.858 140.771 340.858 140.614C340.858 140.433 340.966 140.276 341.196 140.167C341.461 140.022 341.666 139.926 341.811 139.89C342.97 139.371 344.092 138.803 345.166 138.212C346.289 137.572 347.327 136.848 348.304 136.028C350.513 134.121 352.166 131.828 353.289 129.136C354.447 126.409 355.026 123.609 355.026 120.736C355.026 118.045 354.447 115.692 353.289 113.676C352.166 111.661 350.597 110.092 348.582 108.969C346.566 107.811 344.213 107.231 341.522 107.231C339.361 107.231 337.297 107.702 335.366 108.631C333.46 109.525 331.77 110.756 330.273 112.324C328.777 113.857 327.606 115.607 326.749 117.587C325.892 119.566 325.458 121.617 325.458 123.742C325.458 124.224 325.482 124.84 325.518 125.588C325.555 126.3 325.651 127.012 325.796 127.712C325.977 128.424 326.267 129.016 326.641 129.498C327.051 129.981 327.606 130.223 328.318 130.223C329.103 130.223 329.948 129.812 330.841 128.992C331.734 128.171 332.615 127.121 333.472 125.854C334.365 124.55 335.21 123.199 335.994 121.823C336.778 120.399 337.466 119.083 338.07 117.852C338.661 116.621 339.096 115.668 339.361 114.992L343.899 117.9C343.416 118.83 342.728 119.976 341.823 121.316C340.93 122.619 339.904 123.983 338.746 125.407C337.587 126.831 336.356 128.147 335.053 129.378C333.749 130.609 332.446 131.623 331.13 132.407C329.863 133.155 328.644 133.529 327.486 133.529C326.436 133.529 325.542 133.216 324.794 132.576C324.046 131.9 323.43 131.079 322.948 130.114C322.465 129.148 322.103 128.123 321.886 127.036C321.656 125.95 321.548 124.997 321.548 124.176C321.548 121.376 322.139 118.805 323.334 116.452C324.565 114.099 326.206 112.071 328.258 110.345C330.31 108.631 332.603 107.304 335.149 106.375C337.684 105.409 340.278 104.914 342.934 104.914C346.18 104.914 349.089 105.53 351.671 106.761C354.278 107.956 356.342 109.73 357.826 112.083C359.323 114.4 360.071 117.273 360.071 120.7L360.059 120.736Z" fill="black"/>
<path d="M481 103.852C481 117.418 477.802 127 471.417 132.6C465.033 138.2 455.221 141 441.994 141H371.44V5.9982H481V103.864V103.852ZM387.721 93.9678V132.866H442.332C448.209 132.866 452.651 131.429 455.644 128.545C458.637 125.661 460.676 121.955 461.75 117.442C462.825 112.916 463.356 108.281 463.356 103.538V14.3015H387.709V93.9557L387.721 93.9678Z" fill="black"/>
<path d="M384.185 64.9544C411.194 40.2133 447.968 41.9874 472.564 69.0336C474.181 70.8198 476.993 74.0181 478.128 76.0456C479.093 77.7594 478.116 78.4715 476.945 79.8232C472.576 84.9041 464.152 91.6627 458.468 95.2833C430.746 112.976 400.791 104.757 378.066 83.5162C377.221 82.7317 374.336 80.0766 373.878 79.3283C372.804 77.5542 374.674 75.5991 375.712 74.1629C378.114 70.8319 381.155 67.7181 384.172 64.9544H384.185ZM469.354 76.2387C461.907 69.444 457.225 64.9906 448.439 59.4751C448.233 59.3424 448.004 59.6079 448.185 59.7889C457.394 69.3716 455.221 83.649 446.121 93.8954C447.183 92.7247 445.071 95.0782 446.121 93.8954C454.545 89.4299 467.012 79.4249 468.243 77.7232C469.68 75.7439 472.54 78.4956 469.366 76.2387H469.354ZM444.806 76.0698C444.806 65.7509 436.454 57.3872 426.148 57.3872C415.841 57.3872 407.489 65.7509 407.489 76.0698C407.489 86.3886 415.841 94.7523 426.148 94.7523C436.454 94.7523 444.806 86.3886 444.806 76.0698ZM405.426 58.4493C397.484 61.8286 389.64 69.7819 383.159 75.4784C381.819 76.6491 380.733 77.4215 381.626 78.1094C388.71 83.5645 400.864 91.7472 409.408 94.4385C408.129 92.9782 406.644 91.8678 405.426 90.3351C399.548 83.0093 398.148 75.0318 401.045 66.1009C402.082 62.8906 403.241 60.9717 405.426 58.4372V58.4493Z" fill="black"/>
<path d="M424.12 34.3237C429.297 33.3461 429.647 38.7047 433.147 40.3823C438.506 42.9529 441.125 34.6858 446.326 36.9789C449.923 38.5599 449.09 45.1494 453.93 46.1391C457.599 46.8994 460.676 42.5547 464.683 44.5701C468.63 46.5494 465.986 54.2855 471.393 54.8528C472.648 54.9855 474.99 53.5735 475.424 55.0097C475.907 56.6269 473.71 56.9407 472.552 57.0372C469.245 57.339 466.988 55.6493 465.793 52.6683C464.623 49.7235 465.564 45.3788 461.099 46.5736C457.188 47.6236 455.342 49.977 450.985 47.3098C447.811 45.3667 448.076 42.3253 446.29 39.815C444.202 36.8823 440.28 41.734 437.999 42.6271C435.573 43.5805 432.834 43.1581 430.782 41.5529C428.754 39.9719 426.51 34.3358 423.48 37.2685C421.791 38.8978 420.934 41.2512 418.737 42.5064C416.022 44.0633 413.512 43.5081 410.953 42.0236C408.889 40.8288 406.234 37.4133 404.194 40.5271C402.541 43.0495 402.577 46.3805 399.427 48.1425C394.962 50.6408 392.898 47.7684 389.109 47.3098C385.584 46.8753 386.091 50.7373 385.584 53.0666C384.872 56.3493 382.893 58.6786 379.357 58.8355C378.319 58.8838 374.626 58.6545 375.724 56.8079C376.304 55.8424 378.862 56.6269 380.129 56.4097C385.283 55.5407 381.928 47.5391 386.417 45.5236C390.436 43.7133 393.815 47.9011 397.581 46.5132C401.865 44.9322 400.61 37.7513 405.546 37.0995C409.867 36.5323 411.737 42.0236 416.613 40.9857C419.642 40.3461 420.958 34.9272 424.132 34.3237H424.12Z" fill="black"/>
<path d="M444.806 76.0698C444.806 86.3886 436.454 94.7523 426.148 94.7523C415.841 94.7523 407.489 86.3886 407.489 76.0698C407.489 65.7509 415.841 57.3872 426.148 57.3872C436.454 57.3872 444.806 65.7509 444.806 76.0698ZM419.051 66.3061C412.534 72.5457 418.52 81.2835 423.263 86.4127C423.685 86.8714 425.544 88.911 426.015 88.7903C426.558 88.6455 430.335 84.0955 430.939 83.3111C434.415 78.737 437.673 72.9802 433.703 67.5733C430.323 62.963 423.179 62.3475 419.039 66.3061H419.051Z" fill="white"/>
<path d="M419.051 66.3061C423.191 62.3475 430.323 62.951 433.715 67.5733C437.685 72.9801 434.415 78.737 430.951 83.311C430.36 84.0955 426.57 88.6455 426.027 88.7903C425.556 88.911 423.698 86.8713 423.275 86.4127C418.532 81.2835 412.546 72.5457 419.063 66.3061H419.051ZM429.816 73.0405C429.816 70.8319 428.03 69.0457 425.834 69.0457C423.637 69.0457 421.851 70.8319 421.851 73.0405C421.851 75.2491 423.637 77.0353 425.834 77.0353C428.03 77.0353 429.816 75.2491 429.816 73.0405Z" fill="black"/>
<path d="M425.834 77.0353C428.042 77.0353 429.816 75.2491 429.816 73.0405C429.816 70.8319 428.03 69.0457 425.834 69.0457C423.637 69.0457 421.839 70.8319 421.839 73.0405C421.839 75.2491 423.625 77.0353 425.834 77.0353Z" fill="white"/>
</g>
<defs>
<clipPath id="clip0_2360_430">
<rect width="481" height="141" fill="white"/>
</clipPath>
</defs>
</svg>
