<svg width="334" height="283" viewBox="0 0 334 283" fill="none" xmlns="http://www.w3.org/2000/svg">
<path d="M66.9027 239.551C66.9027 241.695 66.8492 244.293 66.742 247.347C66.6348 250.401 66.4473 253.59 66.1794 256.912C65.9115 260.18 65.5096 263.288 64.9738 266.235C64.4916 269.128 63.8486 271.539 63.0449 273.468C62.0805 275.772 60.7678 277.701 59.1068 279.255C57.4993 280.755 55.3561 281.505 52.6771 281.505C51.5519 281.505 50.2123 281.076 48.6585 280.219C47.1047 279.362 45.6312 278.371 44.2381 277.245C42.845 276.12 41.7466 275.156 40.9429 274.352C40.7286 274.031 40.6214 273.789 40.6214 273.629C40.6214 273.361 40.7553 273.227 41.0232 273.227C41.5055 273.227 42.2556 273.468 43.2736 273.95C44.2917 274.432 45.4704 274.941 46.81 275.477C48.1495 275.96 49.4354 276.201 50.6678 276.201C52.3824 276.201 53.7219 275.638 54.6863 274.513C55.6508 273.388 56.3741 272.048 56.8564 270.494C57.3386 268.94 57.6869 267.494 57.9012 266.154C58.4906 262.296 58.8924 258.412 59.1068 254.5C59.3211 250.535 59.5086 246.597 59.6693 242.686H43.8362C43.0861 248.258 41.8537 253.402 40.1392 258.117C38.4246 262.779 35.9867 266.985 32.8254 270.735C29.6641 274.486 25.5116 277.728 20.3679 280.46C19.6177 280.835 18.6265 281.291 17.3941 281.827C16.1618 282.309 15.1438 282.55 14.34 282.55C13.1613 282.55 12.1432 282.148 11.2859 281.344C10.4286 280.541 10 279.523 10 278.29C10 277.111 10.4286 276.067 11.2859 275.156C12.1968 274.191 13.2416 273.709 14.4204 273.709C15.5456 273.709 16.5636 274.191 17.4745 275.156C18.3854 276.067 18.8408 277.085 18.8408 278.21C18.8408 278.371 18.814 278.531 18.7605 278.692C18.7605 278.853 18.7605 279.014 18.7605 279.174C22.6718 276.495 25.8331 273.2 28.2442 269.289C30.709 265.377 32.5575 261.171 33.7898 256.67C35.0758 252.116 35.9063 247.589 36.2814 243.088L16.9119 243.248L16.9923 239.632H36.7636C36.8707 237.381 36.9511 235.131 37.0047 232.881C37.1119 230.63 37.1922 228.38 37.2458 226.129H45.2829L44.1577 239.632C47.962 239.632 51.7662 239.632 55.5704 239.632C59.3747 239.578 63.1521 239.551 66.9027 239.551Z" fill="black"/>
<path d="M76.7081 156.949C76.7081 158.021 76.2795 159.012 75.4222 159.923C74.5649 160.78 73.6004 161.209 72.5288 161.209H58.9461C58.7318 165.442 58.2228 169.299 57.419 172.782C56.6689 176.265 55.383 179.507 53.5612 182.507C51.7931 185.508 49.248 188.481 45.926 191.428C43.622 193.411 40.9162 195.018 37.8085 196.251C34.7544 197.429 31.7271 198.34 28.7266 198.983C28.03 199.144 27.3335 199.278 26.6369 199.385C25.9404 199.546 25.217 199.626 24.4669 199.626C23.2881 199.626 22.2433 199.224 21.3324 198.421C20.4751 197.617 20.0465 196.626 20.0465 195.447C20.0465 194.268 20.4751 193.196 21.3324 192.232C22.2433 191.268 23.2881 190.785 24.4669 190.785C25.6993 190.785 26.7173 191.268 27.521 192.232C28.3783 193.196 28.8069 194.268 28.8069 195.447C28.8069 195.661 28.7801 195.902 28.7266 196.17C28.7266 196.438 28.6998 196.706 28.6462 196.974C33.8435 195.206 38.1568 192.527 41.5859 188.937C45.0151 185.293 47.587 181.087 49.3016 176.318C51.0697 171.496 51.9806 166.46 52.0342 161.209H33.7096V177.926H26.7173V161.209H13.0542V157.672H26.7173V142.723H33.7899V157.672H52.0342V142H59.1872V157.672H68.028C67.9745 157.512 67.9477 157.271 67.9477 156.949C67.9477 155.77 68.3763 154.699 69.2336 153.734C70.0909 152.77 71.1089 152.288 72.2877 152.288C73.5201 152.288 74.5649 152.77 75.4222 153.734C76.2795 154.699 76.7081 155.77 76.7081 156.949Z" fill="black"/>
<path d="M45.045 71.357C42.6617 69.4503 40.8504 67.1147 39.611 64.35C38.467 61.49 37.6567 58.487 37.18 55.341C36.7987 52.195 36.608 49.192 36.608 46.332C31.8414 48.5247 27.456 51.5277 23.452 55.341C19.448 59.059 16.2544 63.349 13.871 68.211C11.583 73.073 10.439 78.2687 10.439 83.798C10.439 85.7047 11.011 87.516 12.155 89.232C13.3944 90.948 15.0627 91.806 17.16 91.806C19.0667 91.806 21.307 91.0433 23.881 89.518C26.5504 87.8973 29.2197 85.943 31.889 83.655C34.6537 81.367 37.18 79.1267 39.468 76.934C41.8514 74.646 43.7104 72.787 45.045 71.357ZM98.67 70.07C98.67 79.508 96.1437 87.5637 91.091 94.237C86.0384 100.815 79.508 106.201 71.5 110.396C70.07 111.159 68.1157 112.017 65.637 112.97C63.1584 114.019 60.632 114.924 58.058 115.687C55.5794 116.45 53.5297 116.831 51.909 116.831C50.5744 116.831 49.3827 116.307 48.334 115.258C47.2854 114.305 46.761 113.161 46.761 111.826C46.761 110.301 47.2854 109.014 48.334 107.965C49.478 106.821 50.8127 106.249 52.338 106.249C54.34 106.249 55.7224 106.916 56.485 108.251C57.2477 109.681 57.629 111.206 57.629 112.827C63.1584 110.062 67.9727 106.487 72.072 102.102C76.1714 97.7167 79.365 92.7593 81.653 87.23C84.0364 81.7007 85.228 75.8377 85.228 69.641C85.228 64.8743 83.8457 60.3937 81.081 56.199C78.4117 52.0043 74.8844 48.906 70.499 46.904C68.0204 45.76 65.3987 45.045 62.634 44.759C59.8694 44.3777 57.1047 44.187 54.34 44.187C53.1007 44.187 51.8614 44.2347 50.622 44.33C49.3827 44.4253 48.0957 44.5683 46.761 44.759C46.475 49.335 46.332 53.8633 46.332 58.344C46.332 60.06 46.4274 61.776 46.618 63.492C46.904 65.1127 47.3807 66.7333 48.048 68.354C51.2894 64.8267 54.2447 60.918 56.914 56.628L66.781 63.063C60.8704 69.8317 54.34 75.9807 47.19 81.51C40.04 87.0393 32.3657 91.7107 24.167 95.524C22.165 96.4773 20.0677 97.3353 17.875 98.098C15.7777 98.7653 13.6327 99.099 11.44 99.099C9.0567 99.099 7.00703 98.4317 5.29103 97.097C3.57503 95.667 2.24036 93.9033 1.28703 91.806C0.429029 89.7087 3.05176e-05 87.5637 3.05176e-05 85.371C3.05176e-05 78.1257 1.66836 71.643 5.00503 65.923C8.43703 60.203 12.9177 55.341 18.447 51.337C24.0717 47.333 30.1254 44.2823 36.608 42.185C36.608 38.8483 36.5604 35.5117 36.465 32.175C36.465 28.743 36.5127 25.3587 36.608 22.022L5.72003 22.737V17.303L36.608 16.588C36.608 13.8233 36.608 11.0587 36.608 8.29399C36.608 5.52933 36.6557 2.76467 36.751 0H49.335C48.9537 2.66933 48.7154 5.38633 48.62 8.151C48.5247 10.8203 48.3817 13.5373 48.191 16.302L67.496 15.587C67.4007 15.2057 67.3054 14.872 67.21 14.586C67.21 14.2047 67.21 13.8233 67.21 13.442C67.21 11.5353 67.925 9.81933 69.355 8.29399C70.785 6.76866 72.4534 6.006 74.36 6.006C76.362 6.006 78.078 6.721 79.508 8.151C80.938 9.48566 81.653 11.154 81.653 13.156C81.653 15.0627 80.8904 16.7787 79.365 18.304C77.8397 19.734 76.1237 20.4967 74.217 20.592L47.905 21.593C47.8097 24.739 47.6667 27.885 47.476 31.031C47.2854 34.0817 47.0947 37.18 46.904 40.326C48.5247 39.8493 50.1454 39.5633 51.766 39.468C53.482 39.2773 55.1504 39.182 56.771 39.182C60.3937 39.182 63.9687 39.2773 67.496 39.468C71.1187 39.6587 74.646 40.4213 78.078 41.756C84.2747 44.044 89.232 47.6667 92.95 52.624C96.7634 57.486 98.67 63.3013 98.67 70.07Z" fill="black"/>
<path d="M281.811 177.035H221.129V204.404H260.082C260.259 202.439 260.921 200.848 262.069 199.632C263.306 198.322 264.631 197.667 266.044 197.667C267.457 197.667 268.782 198.368 270.019 199.772C271.344 201.082 272.006 202.673 272.006 204.544C272.006 206.322 271.432 207.819 270.284 209.035C269.136 210.158 267.943 210.673 266.707 210.579H221.129V236.404H260.215C260.391 234.532 261.054 232.988 262.202 231.772C263.438 230.556 264.719 229.947 266.044 229.947C267.369 229.947 268.694 230.556 270.019 231.772C271.344 232.988 272.006 234.579 272.006 236.544C272.006 238.322 271.432 239.819 270.284 241.035C269.224 242.158 268.076 242.673 266.839 242.579H221.129V276.825H264.587C269.533 276.825 273.199 275.608 275.584 273.175C278.057 270.649 279.691 267.515 280.486 263.772C281.369 259.936 281.811 256.099 281.811 252.263V177.035ZM294 252.544C294 263.772 291.527 271.678 286.58 276.263C281.722 280.754 274.303 283 264.322 283H210V171H294V252.544Z" fill="black"/>
<path d="M171.04 253.56C171.04 259 169.813 263.747 167.36 267.8C164.96 271.8 161.44 275.187 156.8 277.96C155.787 278.6 154.533 279.267 153.04 279.96C151.6 280.653 150.107 281.267 148.56 281.8C147.067 282.28 145.707 282.52 144.48 282.52C144.32 282.52 144.133 282.493 143.92 282.44C143.707 282.333 143.6 282.173 143.6 281.96C143.6 281.693 143.76 281.48 144.08 281.32C144.453 281.107 144.747 280.973 144.96 280.92C146.613 280.173 148.213 279.373 149.76 278.52C151.36 277.613 152.853 276.573 154.24 275.4C157.387 272.68 159.76 269.4 161.36 265.56C163.013 261.667 163.84 257.667 163.84 253.56C163.84 249.72 163.013 246.36 161.36 243.48C159.76 240.6 157.52 238.36 154.64 236.76C151.76 235.107 148.4 234.28 144.56 234.28C141.467 234.28 138.533 234.947 135.76 236.28C133.04 237.56 130.613 239.32 128.48 241.56C126.347 243.747 124.667 246.253 123.44 249.08C122.213 251.907 121.6 254.84 121.6 257.88C121.6 258.573 121.627 259.453 121.68 260.52C121.733 261.533 121.867 262.547 122.08 263.56C122.347 264.573 122.747 265.427 123.28 266.12C123.867 266.813 124.667 267.16 125.68 267.16C126.8 267.16 128 266.573 129.28 265.4C130.56 264.227 131.813 262.733 133.04 260.92C134.32 259.053 135.52 257.133 136.64 255.16C137.76 253.133 138.747 251.24 139.6 249.48C140.453 247.72 141.067 246.36 141.44 245.4L147.92 249.56C147.227 250.893 146.24 252.52 144.96 254.44C143.68 256.307 142.213 258.253 140.56 260.28C138.907 262.307 137.147 264.2 135.28 265.96C133.413 267.72 131.547 269.16 129.68 270.28C127.867 271.347 126.133 271.88 124.48 271.88C122.987 271.88 121.707 271.427 120.64 270.52C119.573 269.56 118.693 268.387 118 267C117.307 265.613 116.8 264.147 116.48 262.6C116.16 261.053 116 259.693 116 258.52C116 254.52 116.853 250.84 118.56 247.48C120.32 244.12 122.667 241.213 125.6 238.76C128.533 236.307 131.813 234.413 135.44 233.08C139.067 231.693 142.773 231 146.56 231C151.2 231 155.36 231.88 159.04 233.64C162.773 235.347 165.707 237.88 167.84 241.24C169.973 244.547 171.04 248.653 171.04 253.56Z" fill="black"/>
<path d="M183.815 53.689C226.579 14.5107 284.803 17.3259 323.76 60.1418C326.329 62.9633 330.771 68.0433 332.575 71.2443C334.108 73.9615 332.556 75.0907 330.711 77.2321C323.785 85.2759 310.455 95.9704 301.454 101.715C257.552 129.737 210.137 116.708 174.147 83.0839C172.814 81.8376 168.235 77.6433 167.509 76.4445C165.809 73.642 168.779 70.5421 170.419 68.271C174.229 62.9981 179.031 58.07 183.815 53.689ZM321.887 68.1951C310.136 56.1784 294.648 45.718 278.73 40.2237C295.852 55.3307 296.986 82.5272 281.881 99.5194C280.212 101.395 278.206 102.901 276.519 104.745C282.13 103.296 287.779 100.921 292.955 98.27C305.321 91.9406 316.114 83.1092 325.672 73.1106L325.766 72.7025C325.492 72.2439 325.172 71.8105 324.85 71.3867C324.038 70.3112 322.841 69.1725 321.887 68.1951ZM279.811 71.2918C279.811 54.9606 266.585 41.7198 250.273 41.7198C233.96 41.7198 220.734 54.9606 220.734 71.2918C220.734 87.623 233.96 100.864 250.273 100.864C266.585 100.864 279.811 87.623 279.811 71.2918ZM218.703 43.3868C206.128 48.7356 193.891 57.2824 183.629 66.313C181.509 68.1761 177.834 71.3013 176.204 73.4269C175.888 73.8381 175.411 74.3062 175.423 74.8661C175.452 75.9258 184.915 83.7165 186.33 84.8078C197.546 93.4431 210.235 100.158 223.758 104.429C221.729 102.113 219.391 100.364 217.448 97.9379C208.143 86.3356 205.815 71.5195 210.399 57.3678C212.045 52.2846 215.243 47.3976 218.706 43.3868H218.703Z" fill="black"/>
<path d="M247.056 5.18636C255.255 3.64275 255.808 12.1199 261.344 14.7706C269.836 18.8384 273.966 5.75888 282.212 9.37748C287.899 11.8732 286.585 22.3051 294.26 23.8835C300.07 25.0792 304.936 18.2089 311.28 21.3973C317.52 24.5351 313.343 36.7859 321.896 37.6716C323.88 37.8772 327.596 35.6377 328.275 37.9151C329.037 40.4741 325.561 40.9644 323.722 41.1288C318.493 41.6002 314.904 38.9242 313.024 34.2048C311.163 29.536 312.651 22.6562 305.593 24.5604C299.406 26.2306 296.481 29.9441 289.587 25.7213C284.554 22.6373 284.99 17.8293 282.162 13.8596C278.857 9.21617 272.648 16.9025 269.028 18.3165C265.179 19.8189 260.857 19.161 257.6 16.6242C254.38 14.119 250.838 5.20217 246.029 9.84246C243.356 12.4204 241.991 16.1434 238.516 18.1362C234.216 20.6002 230.247 19.7177 226.194 17.3802C222.924 15.495 218.722 10.0892 215.486 15.0078C212.864 18.9934 212.924 24.2821 207.944 27.0688C200.867 31.029 197.597 26.4773 191.61 25.7466C186.02 25.0634 186.826 31.165 186.024 34.8564C184.889 40.0566 181.771 43.7353 176.163 43.982C174.52 44.0547 168.665 43.6941 170.419 40.7651C171.332 39.2373 175.379 40.4836 177.398 40.142C185.559 38.766 180.254 26.0914 187.351 22.903C193.723 20.0403 199.057 26.6608 205.022 24.4624C211.815 21.9572 209.827 10.589 217.628 9.56411C224.469 8.66578 227.423 17.3644 235.154 15.7227C239.957 14.7042 242.042 6.1258 247.059 5.18319L247.056 5.18636Z" fill="black"/>
<path d="M321.887 68.1961C322.841 69.1735 324.038 70.3091 324.85 71.3877C325.172 71.8115 325.492 72.248 325.766 72.7035L325.672 73.1116C316.114 83.1133 305.321 91.9416 292.955 98.271C287.779 100.922 282.13 103.297 276.519 104.746C278.206 102.902 280.212 101.396 281.881 99.5204C296.986 82.5282 295.852 55.3285 278.731 40.2247C294.648 45.719 310.136 56.1794 321.887 68.1961Z" fill="white"/>
<path d="M218.702 43.3875C215.243 47.3983 212.042 52.2885 210.396 57.3685C205.815 71.5171 208.143 86.3363 217.445 97.9386C219.388 100.365 221.726 102.114 223.755 104.429C210.235 100.159 197.543 93.4406 186.327 84.8085C184.908 83.7172 175.448 75.9265 175.42 74.8668C175.404 74.307 175.885 73.8388 176.2 73.4276C177.831 71.2988 181.508 68.1768 183.625 66.3138C193.891 57.2831 206.124 48.7363 218.699 43.3875H218.702Z" fill="white"/>
<path d="M279.811 71.2922C279.811 87.6233 266.585 100.864 250.272 100.864C233.96 100.864 220.734 87.6233 220.734 71.2922C220.734 54.961 233.96 41.7202 250.272 41.7202C266.585 41.7202 279.811 54.961 279.811 71.2922ZM239.034 55.8309C228.715 65.7061 238.197 79.5511 245.71 87.6708C246.383 88.3983 249.325 91.6247 250.073 91.4286C250.926 91.204 256.923 83.9889 257.865 82.749C263.359 75.5054 268.525 66.3862 262.247 57.8268C256.889 50.5232 245.581 49.5616 239.031 55.8277L239.034 55.8309Z" fill="white"/>
<path d="M239.034 55.8314C245.584 49.5653 256.892 50.5269 262.25 57.8305C268.528 66.3899 263.362 75.5092 257.868 82.7527C256.926 83.9927 250.93 91.2077 250.076 91.4323C249.328 91.6284 246.386 88.4021 245.713 87.6745C238.2 79.5548 228.718 65.7099 239.037 55.8346L239.034 55.8314ZM256.08 66.488C256.08 62.9959 253.252 60.1649 249.764 60.1649C246.276 60.1649 243.448 62.9959 243.448 66.488C243.448 69.9801 246.276 72.8111 249.764 72.8111C253.252 72.8111 256.08 69.9801 256.08 66.488Z" fill="black"/>
<path d="M249.767 72.8107C253.255 72.8107 256.083 69.9798 256.083 66.4876C256.083 62.9955 253.255 60.1646 249.767 60.1646C246.279 60.1646 243.451 62.9955 243.451 66.4876C243.451 69.9798 246.279 72.8107 249.767 72.8107Z" fill="white"/>
</svg>
