<svg width="294" height="215" viewBox="0 0 294 215" fill="none" xmlns="http://www.w3.org/2000/svg">
<path d="M220.582 11.3007C202.352 21.8257 187.743 18.1821 174.866 14.9587C162.645 11.911 152.093 9.27382 138.055 17.3788C124.016 25.4838 121.024 35.941 117.553 48.0487C113.897 60.8171 109.757 75.2857 91.527 85.8107C73.2972 96.3357 58.6968 92.6871 45.8113 89.4687C33.5814 86.426 23.0291 83.7888 8.99948 91.8888C6.13293 93.5438 2.45833 92.5592 0.803325 89.6927C-0.851675 86.8261 0.132933 83.1515 2.99948 81.4965C21.2293 70.9715 35.8297 74.6201 48.7152 77.8386C60.9364 80.8863 71.4888 83.5234 85.5184 75.4234C99.548 67.3234 102.549 56.8613 106.02 44.7536C109.676 31.9851 113.816 17.5165 132.055 6.98651C150.293 -3.54349 164.893 0.105137 177.77 3.32855C189.992 6.37627 200.544 9.01343 214.582 0.908427C217.449 -0.746573 221.123 0.238035 222.778 3.10458C224.433 5.97112 223.449 9.64573 220.582 11.3007Z" fill="black"/>
<path d="M255.582 71.9225C237.352 82.4475 222.743 78.8039 209.866 75.5805C197.645 72.5327 187.093 69.8956 173.055 78.0006C159.016 86.1056 156.024 96.5627 152.553 108.67C148.897 121.439 144.757 135.907 126.527 146.432C108.297 156.957 93.6968 153.309 80.8113 150.09C68.5814 147.048 58.0291 144.411 43.9995 152.511C41.1329 154.166 37.4583 153.181 35.8033 150.314C34.1483 147.448 35.1329 143.773 37.9995 142.118C56.2293 131.593 70.8297 135.242 83.7152 138.46C95.9364 141.508 106.489 144.145 120.518 136.045C134.548 127.945 137.549 117.483 141.02 105.375C144.676 92.6069 148.816 78.1383 167.055 67.6083C185.293 57.0783 199.893 60.7269 212.77 63.9503C224.992 66.998 235.544 69.6352 249.582 61.5302C252.449 59.8752 256.123 60.8598 257.778 63.7264C259.433 66.5929 258.449 70.2675 255.582 71.9225Z" fill="black"/>
<path d="M290.582 132.544C272.352 143.069 257.743 139.426 244.866 136.202C232.645 133.155 222.093 130.517 208.055 138.622C194.016 146.727 191.024 157.185 187.553 169.292C183.897 182.061 179.757 196.529 161.527 207.054C143.297 217.579 128.697 213.931 115.811 210.712C103.581 207.67 93.0291 205.032 78.9995 213.132C76.1329 214.787 72.4583 213.803 70.8033 210.936C69.1483 208.07 70.1329 204.395 72.9995 202.74C91.2293 192.215 105.83 195.864 118.715 199.082C130.936 202.13 141.489 204.767 155.518 196.667C169.548 188.567 172.549 178.105 176.02 165.997C179.676 153.229 183.816 138.76 202.055 128.23C220.293 117.7 234.893 121.349 247.77 124.572C259.992 127.62 270.544 130.257 284.582 122.152C287.449 120.497 291.123 121.482 292.778 124.348C294.433 127.215 293.449 130.889 290.582 132.544Z" fill="black"/>
</svg>
