<svg width="343" height="49" viewBox="0 0 343 49" fill="none" xmlns="http://www.w3.org/2000/svg">
<path d="M324.995 7.55054C324.995 6.68415 324.695 5.96769 324.096 5.40112C323.571 4.87607 322.943 4.57999 322.214 4.5144L321.896 4.50073C321.062 4.50073 320.345 4.80112 319.745 5.40112C319.145 5.9677 318.846 6.6841 318.846 7.55054V42.1003L318.859 42.408C318.925 43.1115 319.22 43.7258 319.745 44.2507C320.27 44.7756 320.884 45.0708 321.588 45.1365L321.896 45.1511C322.654 45.1511 323.31 44.9211 323.864 44.4617L324.096 44.2507C324.696 43.6508 324.995 42.9336 324.995 42.1003V22.9011C325.262 23.3344 325.662 23.7008 326.195 24.0007C327.195 24.5674 328.295 25.2506 329.495 26.0505C330.728 26.8172 331.946 27.6176 333.146 28.4509C334.379 29.2842 335.462 30.0672 336.396 30.8005C336.979 31.2672 337.639 31.5042 338.375 31.5115L338.695 31.5007C339.562 31.4008 340.262 31.0342 340.795 30.4011C341.362 29.7345 341.595 28.967 341.495 28.1003C341.433 27.2566 341.107 26.5739 340.517 26.0525L340.396 25.9509C338.896 24.6843 337.112 23.3839 335.045 22.0505C333.012 20.7173 331.011 19.534 329.045 18.5007C328.312 18.1342 327.561 18.0672 326.795 18.3005C326.028 18.5006 325.428 18.9339 324.995 19.6003V7.55054ZM325.995 17.5144C326.112 17.4663 326.233 17.4245 326.356 17.3865L326.543 17.3328C327.548 17.037 328.548 17.1341 329.492 17.6062L329.502 17.6111L329.511 17.616C331.506 18.6646 333.532 19.863 335.588 21.2107L336.359 21.7156C338.131 22.892 339.693 24.0487 341.04 25.1863H341.039C341.913 25.8941 342.395 26.8529 342.488 27.9861C342.62 29.1288 342.303 30.1716 341.558 31.0486L341.557 31.0476C340.85 31.8852 339.913 32.3666 338.81 32.4939L338.772 32.4978C337.658 32.5835 336.639 32.2766 335.771 31.5818V31.5808C334.862 30.8671 333.801 30.0999 332.586 29.2791L332.575 29.2722C331.389 28.4486 330.187 27.6578 328.968 26.9001L328.94 26.8826C327.874 26.1714 326.891 25.5592 325.995 25.0408V42.1003C325.995 43.2042 325.586 44.1741 324.803 44.9578C324.011 45.7497 323.021 46.1511 321.896 46.1511C320.792 46.1511 319.822 45.7415 319.038 44.9578C318.254 44.1741 317.846 43.2042 317.846 42.1003V7.55054C317.846 6.42431 318.248 5.4395 319.059 4.67358C319.839 3.90302 320.801 3.50073 321.896 3.50073C323.011 3.50078 323.993 3.89526 324.781 4.67358C325.592 5.4395 325.995 6.42431 325.995 7.55054V17.5144Z" fill="black"/>
<path d="M290.581 15.157C291.709 15.0269 292.734 15.3356 293.581 16.0789C294.452 16.7799 294.96 17.7183 295.089 18.8357H295.088C295.221 19.9511 294.897 20.969 294.168 21.8337L294.169 21.8347C292.751 23.5634 290.886 25.3908 288.588 27.3171L288.581 27.323C286.283 29.2156 283.72 31.0868 280.894 32.9372C278.067 34.7878 275.156 36.5035 272.162 38.0847C269.159 39.6708 266.232 40.975 263.382 41.9929L263.381 41.9919C262.328 42.3823 261.257 42.3317 260.228 41.8601L260.222 41.8562L260.214 41.8533C259.213 41.3744 258.5 40.5921 258.109 39.5515C257.715 38.4986 257.759 37.433 258.243 36.4197C258.717 35.3952 259.494 34.6584 260.544 34.2644L260.565 34.2566C263.188 33.3388 265.831 32.2063 268.494 30.8581L268.498 30.8562C271.199 29.5055 273.767 28.0406 276.201 26.4617C278.671 24.8482 280.904 23.2057 282.902 21.5349L283.646 20.8992C285.338 19.4261 286.726 18.0156 287.819 16.6697L287.826 16.6619L287.833 16.6531C288.555 15.8035 289.481 15.2893 290.576 15.158L290.581 15.157ZM292.945 16.8503C292.312 16.2838 291.562 16.0511 290.695 16.1511L290.389 16.2019C289.689 16.3514 289.091 16.7175 288.596 17.3005C287.296 18.9005 285.612 20.5672 283.545 22.3005C281.512 24.0005 279.245 25.6672 276.745 27.3005C274.278 28.9005 271.679 30.3841 268.945 31.7507C266.245 33.1174 263.562 34.2676 260.895 35.2009L260.605 35.3249C259.953 35.6421 259.466 36.1505 259.145 36.8503L259.023 37.1394C258.776 37.8138 258.782 38.501 259.045 39.2009C259.345 40.0009 259.879 40.5843 260.645 40.9509C261.445 41.3174 262.245 41.3504 263.045 41.0505C265.495 40.1755 268.009 39.084 270.587 37.7751L271.695 37.2009C274.291 35.8301 276.823 34.3569 279.291 32.782L280.346 32.1003C283.146 30.2671 285.679 28.4171 287.945 26.5505C290.212 24.6506 292.029 22.8676 293.395 21.2009C293.927 20.576 294.165 19.8776 294.11 19.1062L294.096 18.9509C293.996 18.0843 293.612 17.3837 292.945 16.8503ZM259.633 8.5349C260.666 8.29951 261.667 8.47704 262.577 9.05444H262.578C263.496 9.63261 264.524 10.3409 265.66 11.1755C266.833 11.98 267.958 12.7856 269.033 13.5915C270.138 14.3953 271.052 15.089 271.77 15.6697C272.636 16.3626 273.146 17.2893 273.283 18.3923L273.311 18.6013C273.424 19.6369 273.139 20.597 272.477 21.4255C271.782 22.2937 270.854 22.8187 269.747 22.989L269.73 22.9919L269.715 22.9939C268.61 23.1265 267.593 22.8292 266.721 22.1316L266.701 22.116C265.456 21.0675 264.059 19.9823 262.509 18.8611L262.498 18.8533L263.096 18.0505C264.662 19.1838 266.079 20.2837 267.346 21.3503C267.929 21.8171 268.576 22.0415 269.287 22.0232L269.596 22.0007C270.462 21.8673 271.162 21.4671 271.695 20.8005C272.229 20.1339 272.428 19.3838 272.295 18.5505C272.207 17.7923 271.903 17.162 271.382 16.6589L271.145 16.4509C270.62 16.0259 269.982 15.5355 269.232 14.9792L268.445 14.4011C267.645 13.8011 266.817 13.2004 265.961 12.6003L265.096 12.0007C264.246 11.3757 263.461 10.8254 262.742 10.3503L262.045 9.90112C261.312 9.43451 260.529 9.31722 259.695 9.55053C258.895 9.75053 258.262 10.2176 257.795 10.9509L257.647 11.2283C257.338 11.8807 257.27 12.5715 257.445 13.3005C257.645 14.1005 258.112 14.7343 258.846 15.2009C260.112 15.9342 261.529 16.884 263.096 18.0505L262.498 18.8523C260.953 17.7017 259.569 16.775 258.345 16.0662L258.326 16.0554L258.309 16.0447C257.372 15.4488 256.741 14.6064 256.476 13.5437L256.473 13.5339C256.213 12.45 256.368 11.4004 256.935 10.4421L256.942 10.4275L256.951 10.4138C257.542 9.48525 258.376 8.85726 259.426 8.58764L259.633 8.5349Z" fill="black"/>
<path d="M247.645 35.0008C247.645 34.1883 247.352 33.4929 246.767 32.9148L246.645 32.8006C245.779 32.0006 244.712 31.0674 243.445 30.0008C242.212 28.9008 240.879 27.7506 239.445 26.5506C238.37 25.6506 237.286 24.7695 236.192 23.907L235.096 23.0506C233.662 21.8839 232.295 20.817 230.995 19.8504C230.045 19.1005 229.199 18.4536 228.455 17.9099L227.745 17.4012C226.151 16.2449 224.704 15.4402 223.403 14.9871L223.145 14.9012C221.779 14.4679 220.346 14.4175 218.846 14.7508C217.379 15.0841 215.645 15.7838 213.645 16.8504L210.295 18.7508L209.354 19.2762C208.423 19.801 207.52 20.3255 206.645 20.8504L205.07 21.8006C204.604 22.0838 204.196 22.3339 203.846 22.5506L203.583 22.7224C203 23.1454 202.62 23.7217 202.445 24.451L202.385 24.7605C202.279 25.4788 202.416 26.1589 202.795 26.8006C203.262 27.5339 203.912 28.0009 204.745 28.201C205.474 28.376 206.166 28.3088 206.818 27.9988L207.096 27.8504C207.796 27.4171 208.695 26.8509 209.795 26.1512L213.295 24.0008C214.495 23.2674 215.562 22.6337 216.495 22.1004C217.457 21.5463 218.305 21.1713 219.038 20.9744L219.346 20.9012C220.179 20.7012 220.979 20.7342 221.745 21.0008C222.512 21.2341 223.362 21.7012 224.295 22.4012C225.528 23.3345 226.962 24.4508 228.596 25.7508C230.229 27.0507 231.896 28.4171 233.596 29.8504C235.296 31.2504 236.896 32.6176 238.395 33.951C239.929 35.2508 241.195 36.3838 242.195 37.3504C242.72 37.8755 243.36 38.1715 244.115 38.2371L244.445 38.2508C245.345 38.2174 246.095 37.9006 246.695 37.3006C247.289 36.6755 247.605 35.9627 247.642 35.1619L247.645 35.0008ZM230.145 13.0506C230.146 12.2649 230.423 11.5561 230.932 10.9549L230.943 10.9412L230.955 10.9285C231.436 10.3992 232.05 10.0767 232.763 10.0105V10.0096C233.521 9.90843 234.236 10.0936 234.864 10.5281L234.872 10.534C234.915 10.5646 234.958 10.5974 235.003 10.6297C234.496 10.1686 234.237 9.54591 234.153 8.87479L234.149 8.84451L234.147 8.81326C234.099 8.04124 234.321 7.32815 234.787 6.71268H234.786C235.219 6.11727 235.836 5.76257 236.549 5.6199V5.62088C237.266 5.44479 237.972 5.54297 238.61 5.91678L238.611 5.9158C239.314 6.28573 240.114 6.82329 241.005 7.50857C241.886 8.18635 242.614 8.79091 243.18 9.32107H243.179C243.791 9.88823 244.144 10.6087 244.193 11.4422C244.241 12.2611 243.993 13.0126 243.487 13.6599C242.97 14.3323 242.244 14.7015 241.405 14.7947C240.525 14.8924 239.717 14.6365 239.045 14.0603L239.016 14.0349L238.988 14.0076C238.76 13.7788 238.409 13.4721 237.921 13.0818L237.907 13.0711L237.895 13.0603C237.862 13.0328 237.829 13.006 237.797 12.9783C238.319 13.4723 238.762 13.9336 239.117 14.365H239.116C239.63 14.9765 239.895 15.7013 239.895 16.5008C239.895 17.334 239.548 18.0679 238.979 18.6814L238.978 18.6804C238.39 19.3188 237.605 19.6004 236.745 19.6004C235.872 19.6003 235.104 19.2711 234.511 18.6287L234.493 18.6092C234.294 18.3812 233.973 18.0587 233.515 17.6336L233.487 17.6082L233.463 17.5808C233.047 17.133 232.597 16.6837 232.113 16.2322L232.088 16.2088L232.064 16.1834C231.603 15.6885 231.211 15.2803 230.889 14.9578C230.368 14.4371 230.145 13.7648 230.145 13.0506ZM238.145 6.80057C237.712 6.5339 237.245 6.46704 236.745 6.60037C236.245 6.70036 235.862 6.93411 235.596 7.30057C235.262 7.7339 235.112 8.21743 235.145 8.75076C235.212 9.28407 235.412 9.68429 235.745 9.95096C236.112 10.2509 236.545 10.6174 237.045 11.0506C237.578 11.4838 238.078 11.9006 238.545 12.3006C239.045 12.7005 239.429 13.0339 239.695 13.3006C240.162 13.7005 240.695 13.8671 241.295 13.8006C241.895 13.7339 242.362 13.4839 242.695 13.0506C243.016 12.6422 243.184 12.1956 243.198 11.7107L243.195 11.5008C243.162 10.9341 242.928 10.4506 242.495 10.0506C242.095 9.67554 241.601 9.25372 241.014 8.78494L240.395 8.30057C239.529 7.63392 238.779 7.1339 238.145 6.80057ZM248.645 35.0008C248.645 36.1405 248.218 37.149 247.42 37.989L247.411 37.9988L247.402 38.0076C246.612 38.7977 245.618 39.2077 244.482 39.2498L244.464 39.2508H244.445C243.303 39.2508 242.298 38.8612 241.5 38.0691C240.521 37.1227 239.272 36.0049 237.749 34.7137L237.739 34.7058L237.73 34.698C236.241 33.374 234.651 32.0154 232.96 30.6228L232.95 30.615V30.614C231.257 29.1867 229.598 27.8265 227.973 26.533C226.345 25.2377 224.92 24.1275 223.695 23.201L223.372 22.9656C222.632 22.4456 221.994 22.1221 221.454 21.9578L221.436 21.9519L221.417 21.9451C220.842 21.7449 220.237 21.715 219.579 21.8728L219.564 21.8767L219.549 21.8797C218.893 22.0163 218.047 22.3613 216.994 22.9676L216.991 22.9685C216.068 23.4958 215.01 24.1246 213.816 24.8543C212.618 25.5867 211.453 26.3027 210.321 27.0017C209.225 27.6995 208.325 28.2661 207.622 28.701L207.613 28.7068L207.604 28.7117C206.646 29.278 205.596 29.4338 204.512 29.1736C203.422 28.9121 202.555 28.2863 201.951 27.3377L201.942 27.324L201.935 27.3094C201.368 26.351 201.213 25.3015 201.473 24.2176C201.734 23.128 202.363 22.2711 203.323 21.699C204.028 21.2625 204.964 20.6928 206.131 19.9929C207.306 19.288 208.53 18.5836 209.804 17.8797C211.103 17.1469 212.218 16.5143 213.149 15.9822L213.175 15.9685C215.218 14.8789 217.039 14.1355 218.624 13.7752L218.628 13.7742C220.287 13.4055 221.901 13.4567 223.447 13.9471C224.948 14.4229 226.575 15.3177 228.32 16.5828C229.238 17.2284 230.333 18.0547 231.603 19.0574C232.907 20.0272 234.275 21.0946 235.707 22.2596L236.812 23.1219C237.913 23.9904 239.005 24.8778 240.087 25.784C241.524 26.9867 242.862 28.1407 244.102 29.2459C245.366 30.3106 246.437 31.2485 247.313 32.0574C248.182 32.8395 248.645 33.8396 248.645 35.0008ZM231.152 13.2332C231.185 13.649 231.333 13.9882 231.596 14.2508C231.929 14.584 232.328 15.0009 232.795 15.5008C233.295 15.9674 233.762 16.4345 234.195 16.9012C234.662 17.3344 235.012 17.6843 235.245 17.951C235.645 18.3842 236.145 18.6003 236.745 18.6004C237.378 18.6004 237.878 18.4007 238.245 18.0008C238.624 17.5924 238.837 17.1584 238.885 16.699L238.895 16.5008C238.895 16.0051 238.755 15.5604 238.475 15.1668L238.346 15.0008C237.996 14.5758 237.543 14.1035 236.986 13.5847L236.395 13.0506C235.562 12.3172 234.862 11.7504 234.295 11.3504C233.862 11.0506 233.395 10.9342 232.895 11.0008C232.429 11.0341 232.029 11.2338 231.695 11.6004C231.329 12.0337 231.146 12.5173 231.145 13.0506L231.152 13.2332Z" fill="black"/>
<path d="M180.545 16.1511C182.703 13.9054 184.581 11.7485 186.178 9.68137L186.846 8.80051C187.283 8.18817 187.465 7.52465 187.393 6.81028L187.346 6.50071C187.2 5.74231 186.849 5.13737 186.295 4.68528L186.045 4.50071C185.345 4.00085 184.578 3.83406 183.745 4.00071L183.44 4.0759C182.748 4.28009 182.183 4.6881 181.745 5.30051C180.512 7.06715 178.962 8.95094 177.096 10.9509C175.262 12.9176 173.245 14.8836 171.045 16.8503C168.878 18.817 166.646 20.6678 164.346 22.4011L163.499 23.0407C161.534 24.51 159.632 25.8134 157.795 26.9509C157.062 27.3842 156.596 28.0173 156.396 28.8503L156.335 29.1609C156.229 29.8791 156.366 30.5592 156.745 31.2009C157.212 31.9342 157.846 32.4003 158.646 32.6003C159.375 32.7753 160.065 32.708 160.718 32.3982L160.995 32.2507C162.979 30.9965 164.962 29.6272 166.945 28.1433L167.795 27.5007C170.062 25.7674 172.262 23.967 174.396 22.1003V42.1003L174.409 42.4079C174.475 43.1114 174.77 43.7258 175.295 44.2507C175.857 44.8444 176.523 45.1598 177.29 45.197L177.445 45.2009C178.312 45.2009 179.046 44.884 179.646 44.2507C180.245 43.6507 180.545 42.9336 180.545 42.1003V16.1511ZM181.545 42.1003C181.545 43.2042 181.136 44.1741 180.353 44.9577L180.352 44.9568C179.567 45.7752 178.58 46.2009 177.445 46.2009C176.332 46.2009 175.364 45.7668 174.588 44.9568V44.9577C173.804 44.1741 173.396 43.2041 173.396 42.1003V24.279C171.768 25.6549 170.104 26.9935 168.402 28.2947C166.114 30.0448 163.823 31.6453 161.529 33.0954L161.517 33.1042L161.504 33.112C160.546 33.6782 159.496 33.8331 158.412 33.573L158.402 33.571C157.34 33.3053 156.497 32.6743 155.901 31.738L155.893 31.7234L155.885 31.7097C155.318 30.7513 155.163 29.701 155.423 28.6169C155.686 27.5223 156.318 26.6616 157.286 26.0896C159.349 24.8116 161.5 23.3178 163.738 21.6062L163.743 21.6023C166.019 19.8875 168.229 18.0566 170.373 16.1101L170.379 16.1052C172.558 14.1568 174.554 12.2117 176.364 10.2693V10.2683C178.207 8.29408 179.726 6.44753 180.926 4.72825L180.932 4.71946L181.056 4.55344C181.689 3.7446 182.531 3.22386 183.549 3.02024C184.657 2.79862 185.705 3.0288 186.627 3.68723H186.626C187.543 4.30833 188.112 5.20321 188.325 6.30442C188.547 7.41241 188.317 8.45984 187.659 9.38157L187.653 9.38938L187.648 9.39719C185.952 11.6814 183.915 14.0645 181.545 16.5495V42.1003Z" fill="black"/>
<path d="M145.495 24.0505C145.495 20.6173 144.645 17.6172 142.945 15.0505C141.352 12.6131 139.201 10.6882 136.494 9.27612L135.945 9.00073C133.195 7.62573 130.064 6.89526 126.553 6.80933L125.846 6.80054C122.712 6.80054 119.829 7.31704 117.195 8.35034C114.595 9.38367 112.329 10.8178 110.396 12.6511L110.038 12.9978C108.276 14.7517 106.896 16.7693 105.896 19.0505L105.708 19.5027C104.8 21.7742 104.346 24.2067 104.346 26.8005L104.351 27.3025C104.399 29.7888 104.814 31.9382 105.596 33.7507C106.462 35.684 107.629 37.1676 109.096 38.2009C110.471 39.1696 111.978 39.6844 113.616 39.7449L113.945 39.7507C116.045 39.7507 118.045 38.6509 119.945 36.4509C121.879 34.2176 123.545 31.0674 124.945 27.0007C126.379 22.9008 127.395 18.0508 127.995 12.4509C130.395 12.6843 132.446 13.317 134.146 14.3503C135.879 15.3837 137.212 16.7345 138.146 18.4011C139.079 20.0676 139.545 21.9508 139.545 24.0505C139.545 27.3838 138.662 30.1339 136.896 32.3005L136.559 32.7C134.818 34.6608 132.214 36.0945 128.745 37.0007L128.454 37.0886C127.794 37.322 127.275 37.7594 126.896 38.4011L126.748 38.6658C126.438 39.2892 126.37 39.9511 126.545 40.6511C126.745 41.451 127.212 42.0674 127.945 42.5007C128.679 42.934 129.462 43.0502 130.295 42.8503C135.262 41.5837 139.029 39.3511 141.596 36.1511C144.196 32.9178 145.495 28.8839 145.495 24.0505ZM122.146 12.6511C121.812 15.751 121.312 18.5846 120.646 21.1511C119.979 23.6843 119.245 25.8841 118.445 27.7507L118.146 28.4314C117.446 29.9735 116.745 31.1962 116.045 32.1003C115.278 33.1003 114.595 33.6003 113.995 33.6003V32.6003C114.011 32.6003 114.129 32.5933 114.367 32.4187C114.604 32.2451 114.901 31.9494 115.252 31.4919L115.255 31.489C115.983 30.549 116.744 29.1837 117.526 27.3572C118.302 25.5465 119.021 23.3948 119.679 20.8962C120.23 18.7748 120.664 16.4587 120.984 13.947C119.119 14.4633 117.539 15.2614 116.226 16.3269L116.217 16.3347C114.568 17.6409 113.336 19.2004 112.505 21.0173L112.502 21.0232C111.661 22.829 111.226 24.7238 111.195 26.7166C111.197 28.8867 111.536 30.3797 112.092 31.3181C112.695 32.2778 113.328 32.6003 113.995 32.6003V33.6003C112.895 33.6003 111.978 33.0169 111.245 31.8503C110.589 30.7565 110.24 29.1794 110.199 27.1189L110.195 26.7009C110.227 24.701 110.639 22.7888 111.432 20.9646L111.596 20.6003C112.44 18.7566 113.664 17.1618 115.27 15.8162L115.596 15.5505C117.362 14.1174 119.546 13.1511 122.146 12.6511ZM146.495 24.0505C146.495 29.0723 145.14 33.3378 142.375 36.7771L142.374 36.7761C139.641 40.1834 135.665 42.5134 130.542 43.8201L130.535 43.821L130.528 43.823C129.444 44.0831 128.395 43.9283 127.437 43.3621C126.481 42.7977 125.842 41.9623 125.575 40.8933C125.31 39.832 125.469 38.8047 126.045 37.8748C126.607 36.9323 127.435 36.3001 128.492 36.033C132.061 35.1006 134.558 33.6216 136.114 31.6765L136.12 31.6687C137.715 29.7132 138.545 27.1997 138.545 24.0505C138.545 22.1043 138.114 20.3922 137.272 18.8894C136.43 17.3844 135.224 16.1586 133.633 15.2097L133.626 15.2048C132.305 14.402 130.728 13.8506 128.875 13.5681C128.258 18.8014 127.266 23.3925 125.89 27.3308L125.889 27.3298C124.465 31.4645 122.746 34.7408 120.701 37.1033L120.702 37.1042C118.688 39.436 116.435 40.7507 113.945 40.7507C111.969 40.7507 110.152 40.1684 108.52 39.0183C106.881 37.8642 105.609 36.2272 104.683 34.1599L104.677 34.1462C103.777 32.058 103.346 29.5996 103.346 26.8005C103.346 23.9061 103.886 21.1871 104.977 18.655L104.979 18.6492C106.1 16.0935 107.677 13.8503 109.707 11.9255C111.737 10.0003 114.114 8.49957 116.826 7.42163L116.83 7.41968C119.592 6.33604 122.601 5.80054 125.846 5.80054C129.776 5.80059 133.3 6.55992 136.393 8.1062H136.392C139.504 9.61241 141.976 11.743 143.779 14.4988L144.109 15.0193C145.708 17.6487 146.495 20.6697 146.495 24.0505Z" fill="black"/>
<path d="M57.5449 30.6511V17.3503C57.5449 14.6024 57.7815 12.2902 58.2793 10.4412C58.7835 8.5683 59.6338 7.03386 60.874 5.90991C62.1382 4.76111 63.7977 4.01569 65.7861 3.6228L66.543 3.47534C68.3595 3.15534 70.5311 3.00075 73.0449 3.00073V4.00073L72.0059 4.0105C69.6323 4.05423 67.6285 4.25032 65.9951 4.60034C64.1285 4.96701 62.6449 5.65114 61.5449 6.65112L61.3486 6.83667C60.3839 7.78782 59.6826 9.07604 59.2451 10.7009L59.1602 11.031C58.75 12.7126 58.5449 14.8191 58.5449 17.3503V30.6511L58.5566 31.6404C58.6077 33.8971 58.8368 35.7839 59.2451 37.3005C59.7118 39.0339 60.4783 40.4011 61.5449 41.4011C62.6449 42.3678 64.1285 43.0345 65.9951 43.4011C67.8617 43.8011 70.2118 44.0007 73.0449 44.0007H76.8457L77.8848 43.991C80.2584 43.9472 82.2621 43.7511 83.8955 43.4011C85.6454 43.0574 87.044 42.4499 88.0908 41.5789L88.2949 41.4011C89.3261 40.4637 90.0791 39.2036 90.5537 37.6218L90.6455 37.3005C91.0538 35.7839 91.283 33.8971 91.334 31.6404L91.3457 30.6511V17.3503C91.3457 14.8191 91.1407 12.7126 90.7305 11.031L90.6455 10.7009C90.208 9.07604 89.4921 7.78782 88.498 6.83667L88.2949 6.65112C87.2283 5.65115 85.7621 4.96701 83.8955 4.60034C82.2621 4.25032 80.2584 4.05423 77.8848 4.0105L76.8457 4.00073V3.00073C79.7187 3.00075 82.1447 3.20288 84.1045 3.6228H84.1035C86.0798 4.01318 87.721 4.75356 88.9541 5.89917H88.9551C90.2335 7.02264 91.1051 8.56087 91.6113 10.4412C92.1091 12.2902 92.3457 14.6024 92.3457 17.3503V30.6511C92.3457 33.3991 92.1091 35.7113 91.6113 37.5603C91.1053 39.4397 90.2363 40.9872 88.9678 42.1404L88.9668 42.1414C87.7319 43.2605 86.0858 43.9862 84.1035 44.3777L84.1045 44.3787C82.1447 44.7986 79.7187 45.0007 76.8457 45.0007H73.0449C70.1719 45.0007 67.7459 44.7986 65.7861 44.3787V44.3777C63.8041 43.9861 62.148 43.2622 60.8848 42.1521L60.8613 42.1306C59.631 40.9772 58.7833 39.4324 58.2793 37.5603C57.7815 35.7113 57.5449 33.3991 57.5449 30.6511ZM76.8457 37.4011V38.4011H73.0449V37.4011H76.8457ZM84.1953 30.6511V27.3503H65.6953V30.6511C65.6953 32.809 65.895 34.3134 66.2314 35.2468C66.5473 36.039 67.1191 36.5832 68.0469 36.8962C69.1033 37.2172 70.7479 37.4011 73.0449 37.4011V38.4011L72.1973 38.3923C70.2794 38.3522 68.7952 38.1712 67.7451 37.8503C66.5453 37.4503 65.7282 36.7003 65.2949 35.6003C64.945 34.6379 64.7488 33.2543 64.7051 31.45L64.6953 30.6511V26.3503H85.1953V30.6511L85.1855 31.45C85.1382 33.2545 84.924 34.6378 84.5449 35.6003C84.145 36.7003 83.3453 37.4503 82.1455 37.8503L81.9199 37.9177C80.7559 38.24 79.0644 38.4011 76.8457 38.4011V37.4011C79.1767 37.4011 80.8143 37.2172 81.832 36.9001C82.7673 36.5876 83.3194 36.0452 83.6055 35.2585L83.6104 35.2468L83.6152 35.2341C83.9784 34.3121 84.1953 32.8144 84.1953 30.6511ZM84.1953 17.3503C84.1953 15.1871 83.9784 13.6894 83.6152 12.7673L83.6084 12.7507L83.6025 12.7332C83.3136 11.9146 82.7653 11.3859 81.8535 11.1072L81.8457 11.1052V11.1042C80.8289 10.7847 79.1868 10.6004 76.8457 10.6003H73.0449C70.7413 10.6004 69.0932 10.7845 68.0371 11.1072C67.126 11.3857 66.5553 11.9176 66.2354 12.7429L66.1143 13.1189C65.8486 14.0619 65.6953 15.4539 65.6953 17.3503V19.9011H84.1953V17.3503ZM76.8457 3.00073V4.00073H73.0449V3.00073H76.8457ZM85.1953 20.9011H64.6953V17.3503C64.6953 15.1509 64.8951 13.5011 65.2949 12.4011C65.7011 11.3388 66.4446 10.6131 67.5244 10.2244L67.7451 10.1511C68.9451 9.78448 70.7118 9.60036 73.0449 9.60034H76.8457C79.2122 9.60036 80.9789 9.78448 82.1455 10.1511C83.3453 10.5178 84.145 11.2679 84.5449 12.4011C84.9782 13.5011 85.1953 15.1507 85.1953 17.3503V20.9011Z" fill="black"/>
<path d="M33.3457 24.3006C35.7711 24.3006 37.7204 25.0509 38.9034 26.7634H38.9053C40.137 28.4623 40.1536 30.5499 39.2784 32.8113L39.2725 32.825C38.355 35.1017 37.219 37.4221 35.8682 39.7869C34.555 42.1438 33.1908 44.3694 31.7735 46.4617C31.1038 47.4632 30.1638 48.1237 28.9952 48.4177L28.9961 48.4187C28.9942 48.4192 28.9922 48.4192 28.9903 48.4197L28.9883 48.4207L28.9873 48.4197C27.836 48.716 26.7179 48.5634 25.6914 47.9646V47.9636C24.6486 47.3749 23.9366 46.4999 23.6299 45.3611V45.3601C23.3138 44.2202 23.5354 43.1269 24.2364 42.1629C24.8927 41.2437 25.6002 40.2068 26.3594 39.0515C27.1151 37.8683 27.8215 36.7025 28.4776 35.5545C29.1342 34.4054 29.6328 33.4384 29.9805 32.6482L29.9922 32.6209C30.1313 32.3289 30.1818 32.1341 30.1944 32.0213C30.0918 31.9865 29.9036 31.951 29.5957 31.9509H11.9453C10.8775 31.9509 9.92987 31.5994 9.18851 30.8582L9.16605 30.8357L9.14554 30.8123C8.48189 30.0601 8.14563 29.1574 8.14554 28.1511C8.14554 27.1447 8.48178 26.2413 9.14554 25.489L9.16703 25.4656C9.9038 24.6828 10.8581 24.3006 11.9453 24.3006V25.3006C11.112 25.3006 10.4289 25.5845 9.89554 26.1511L9.71976 26.3679C9.3369 26.8857 9.14554 27.4803 9.14554 28.1511L9.15726 28.4334C9.21192 29.0824 9.458 29.6553 9.89554 30.1511C10.3621 30.6176 10.9436 30.8799 11.6397 30.9382L11.9453 30.9509H29.5957C31.1287 30.9511 31.562 31.6508 30.8955 33.0506L30.5918 33.7068C30.2606 34.3942 29.8457 35.1757 29.3457 36.0506L28.836 36.9285C28.3172 37.8097 27.7703 38.7004 27.1953 39.6004C26.4287 40.767 25.7116 41.8174 25.045 42.7507L24.9502 42.8884C24.495 43.5819 24.377 44.319 24.5957 45.1004C24.8291 45.967 25.3621 46.6337 26.1953 47.1004C26.9953 47.567 27.8452 47.6842 28.7452 47.4509C29.6784 47.2176 30.412 46.701 30.9453 45.9011C32.3453 43.8345 33.6952 41.6339 34.9952 39.3006C36.1618 37.2589 37.1632 35.2559 37.9981 33.2908L38.3457 32.4509C39.1457 30.3843 39.0624 28.6837 38.0957 27.3504C37.2208 26.0692 35.7742 25.3885 33.7569 25.3084L33.3457 25.3006V24.3006ZM33.3457 24.3006V25.3006H11.9453V24.3006H33.3457ZM24.9453 0.000747963C26.8723 0.000747963 28.8373 1.03815 30.8125 2.80544H30.8116C31.8595 3.72208 33.0587 4.70763 34.4102 5.76247C35.7683 6.82249 37.1942 7.89948 38.6866 8.99391H38.6856C40.2008 10.0807 41.7153 11.1005 43.2285 12.0545H43.2276C44.737 12.9728 46.1419 13.7558 47.4424 14.406C48.5048 14.9372 49.2848 15.7433 49.7178 16.8162H49.7188C50.1833 17.931 50.0669 19.0695 49.4678 20.1394C48.8833 21.2836 47.9691 22.0597 46.7452 22.3679L46.7461 22.3689C46.7445 22.3693 46.7428 22.3695 46.7412 22.3699C46.7402 22.3701 46.7393 22.3706 46.7383 22.3709L46.7373 22.3699C45.5326 22.6795 44.3191 22.4323 43.1524 21.7713L43.1494 21.7693C41.9575 21.0882 40.6038 20.2418 39.0909 19.2332C38.7276 18.991 38.362 18.7417 37.9932 18.4881C37.9734 19.4366 37.6317 20.288 36.9971 21.0086C36.3066 21.7977 35.3608 22.1511 34.295 22.1511H16.0957C15.0286 22.1511 14.0825 21.7987 13.3662 21.0349L13.3555 21.0232L13.3457 21.0125C12.69 20.2693 12.3458 19.386 12.3457 18.4011C12.3457 18.397 12.3457 18.3925 12.3457 18.3884C11.8131 18.7587 11.2833 19.1237 10.7539 19.4802L10.75 19.4832C9.13704 20.5585 7.66369 21.4554 6.33304 22.1726C5.31934 22.7402 4.24554 22.9504 3.14945 22.7312L3.12601 22.7263L3.10257 22.7205C2.03983 22.4547 1.1975 21.8239 0.601597 20.8875L0.596714 20.8797L0.590855 20.8709C-0.0103262 19.8832 -0.173422 18.8111 0.1973 17.7341H0.196324C0.554802 16.6589 1.29891 15.8515 2.33402 15.3132C3.63572 14.5965 5.0405 13.7471 6.54886 12.7634C8.09906 11.7409 9.63348 10.6686 11.1514 9.54665C12.7032 8.39098 14.1707 7.23611 15.5547 6.08278L15.5645 6.07497C16.9813 4.9217 18.1924 3.85793 19.2002 2.88258L19.2012 2.88063C21.0992 1.0517 23.023 -0.0326104 24.9453 0.000747963ZM24.9453 1.00075C23.4121 0.967417 21.7288 1.83388 19.8955 3.60036C18.8623 4.60031 17.6286 5.68375 16.1953 6.85036C14.7954 8.01701 13.3118 9.18371 11.7452 10.3504C10.212 11.4836 8.66225 12.5671 7.09574 13.6004L5.9639 14.3259C4.85149 15.0259 3.79489 15.651 2.79496 16.2009L2.49613 16.3718C1.82902 16.7911 1.3789 17.3507 1.14554 18.0506C0.878909 18.8171 0.978829 19.5838 1.44535 20.3504C1.91201 21.0837 2.54574 21.5507 3.34574 21.7507C4.17895 21.9173 5.01253 21.7671 5.84574 21.3006C6.82058 20.7756 7.87994 20.1479 9.02347 19.4168L10.1953 18.6511C11.8287 17.5512 13.4789 16.3845 15.1455 15.1511C16.8122 13.8845 18.3791 12.6345 19.8457 11.4011C21.1583 10.3219 22.2793 9.33195 23.209 8.43141L23.5957 8.05055C24.1623 7.48408 24.679 7.20094 25.1455 7.20094L25.334 7.21364C25.7789 7.27549 26.2492 7.55468 26.7452 8.05055C27.8118 9.11719 29.0619 10.2675 30.4952 11.5007C31.9284 12.7007 33.4286 13.9004 34.9952 15.1004C36.5952 16.3004 38.1455 17.4011 39.6455 18.4011C41.1454 19.401 42.479 20.2345 43.6455 20.9011C44.6453 21.4676 45.5953 21.6343 46.4952 21.4011C47.4284 21.1678 48.1291 20.5844 48.5957 19.6511C49.0331 18.8701 49.119 18.1031 48.8535 17.3513L48.795 17.2009C48.4616 16.3676 47.8618 15.7339 46.9952 15.3006C45.6619 14.6339 44.2285 13.8344 42.6953 12.9011C41.5453 12.1761 40.3952 11.4131 39.2452 10.6131L38.0957 9.80055C36.5957 8.70055 35.1616 7.61722 33.795 6.55055C32.4284 5.48399 31.2121 4.48381 30.1455 3.55055C28.3644 1.95687 26.7295 1.11018 25.2412 1.01051L24.9453 1.00075ZM25.1455 8.20094C25.0803 8.20094 24.8072 8.25321 24.3028 8.75758C23.2732 9.78717 21.997 10.9267 20.4805 12.1736L20.4795 12.1726C19.4851 13.0087 18.4453 13.8509 17.3614 14.7009H32.8535C31.824 13.8897 30.8234 13.0793 29.8535 12.2673L29.8428 12.2586C28.3952 11.0129 27.1261 9.84558 26.0381 8.75758C25.5507 8.27021 25.2586 8.20102 25.1455 8.20094ZM13.3575 18.6716C13.4121 19.2951 13.6582 19.8545 14.0957 20.3504C14.5333 20.8171 15.0982 21.0802 15.791 21.1384L16.0957 21.1511H34.295L34.5996 21.1384C35.2885 21.08 35.8369 20.8169 36.2452 20.3504C36.6826 19.8545 36.9288 19.2951 36.9834 18.6716L36.9952 18.4011C36.9952 17.6345 36.7452 17.0007 36.2452 16.5007C35.7785 15.9675 35.1282 15.7009 34.295 15.7009H16.0957L15.791 15.7136C15.0983 15.7719 14.5333 16.0341 14.0957 16.5007C13.5957 17.0007 13.3457 17.6345 13.3457 18.4011L13.3575 18.6716Z" fill="black"/>
</svg>
