<svg width="239" height="46" viewBox="0 0 239 46" fill="none" xmlns="http://www.w3.org/2000/svg">
<path d="M198.753 23.4054C198.753 22.2799 199.154 21.2902 199.946 20.4982L199.956 20.4884L199.965 20.4796C200.775 19.7128 201.751 19.3048 202.853 19.3048V20.3048L202.546 20.3195C201.838 20.385 201.207 20.6801 200.653 21.2052L200.442 21.4366C199.983 21.9908 199.753 22.6471 199.753 23.4054L199.767 23.713C199.833 24.4203 200.128 25.0514 200.653 25.6056C201.207 26.1306 201.838 26.4258 202.546 26.4913L202.853 26.505H234.003C234.761 26.505 235.417 26.2757 235.971 25.8165L236.203 25.6056C236.728 25.0514 237.023 24.4203 237.089 23.713L237.103 23.4054C237.103 22.6471 236.873 21.9908 236.414 21.4366L236.203 21.2052C235.603 20.6053 234.869 20.3048 234.003 20.3048V19.3048C235.128 19.3048 236.118 19.7063 236.91 20.4982C237.702 21.2902 238.103 22.2799 238.103 23.4054C238.103 24.5074 237.696 25.4837 236.929 26.2931L236.91 26.3126C236.118 27.1044 235.128 27.505 234.003 27.505H202.853C201.751 27.505 200.775 27.0979 199.965 26.3312L199.946 26.3126L199.927 26.2931C199.161 25.4837 198.753 24.5075 198.753 23.4054ZM234.003 19.3048V20.3048H202.853V19.3048H234.003Z" fill="black"/>
<path d="M168.018 1.88191C169.064 1.4462 170.133 1.46123 171.152 1.93855L171.342 2.02644C172.262 2.48254 172.91 3.23534 173.276 4.22078L173.353 4.41902C173.665 5.28195 173.671 6.15734 173.365 7.00496H175.653V8.00496H171.803C171.87 7.83839 171.953 7.67152 172.053 7.50496C172.153 7.30508 172.237 7.12173 172.303 6.95515C172.67 6.18866 172.686 5.40535 172.353 4.60554C172.072 3.82441 171.585 3.26279 170.894 2.92097L170.753 2.85554C169.986 2.48898 169.203 2.47151 168.403 2.80476C167.603 3.10476 167.02 3.63868 166.653 4.40535L166.315 5.1075C165.495 6.75182 164.457 8.43446 163.203 10.1553C161.803 12.0886 160.203 13.9386 158.403 15.7052C156.636 17.4718 154.786 19.0552 152.853 20.4552L152.603 20.6505C152.049 21.1244 151.699 21.726 151.553 22.4552L151.517 22.7647C151.466 23.4792 151.645 24.1425 152.053 24.755C152.553 25.4549 153.22 25.8881 154.053 26.0548C154.92 26.188 155.687 26.0049 156.353 25.505C158.253 24.1384 160.22 22.422 162.253 20.3555C164.319 18.2889 166.203 16.1552 167.903 13.9552H174.703C177.169 13.9552 177.87 15.0552 176.803 17.255L176.447 17.9522C176.085 18.6458 175.703 19.3301 175.303 20.005L174.897 20.6768C174.485 21.3457 174.053 22.0052 173.603 22.6553C172.87 21.9887 172.169 21.355 171.503 20.755C171.003 20.3052 170.541 19.9021 170.116 19.546L169.703 19.2052C169.07 18.6719 168.319 18.4548 167.453 18.5548C166.586 18.6215 165.887 18.9887 165.353 19.6553L165.168 19.9093C164.77 20.5108 164.615 21.1763 164.703 21.9053C164.803 22.7386 165.187 23.4219 165.853 23.9552C166.32 24.3551 166.887 24.8552 167.553 25.4552C168.22 26.0551 168.92 26.7054 169.653 27.4053C165.186 32.0386 159.536 35.8216 152.703 38.755C151.936 39.0883 151.387 39.6553 151.053 40.4552L150.956 40.754C150.762 41.4504 150.812 42.1339 151.103 42.8048C151.47 43.5714 152.037 44.1053 152.803 44.4053C153.503 44.6969 154.191 44.7335 154.865 44.5147L155.153 44.4053C158.753 42.8387 162.119 40.9714 165.253 38.8048C168.419 36.6381 171.287 34.2214 173.853 31.5548C174.42 32.1547 174.953 32.7217 175.453 33.255C175.953 33.755 176.369 34.222 176.703 34.6553C177.269 35.2887 177.97 35.6714 178.803 35.8048C179.562 35.8922 180.243 35.7373 180.848 35.3399L181.103 35.1553C181.77 34.5887 182.153 33.8716 182.253 33.005C182.378 32.1924 182.195 31.4679 181.705 30.8311L181.603 30.7052C181.278 30.3052 180.897 29.8676 180.46 29.3927L180.003 28.9053C179.369 28.2387 178.67 27.5381 177.903 26.8048C178.578 25.9299 179.215 25.0364 179.815 24.1241L180.403 23.2052C181.17 21.9386 181.869 20.6554 182.503 19.3555C183.603 17.1555 184.07 15.205 183.903 13.505C183.747 11.88 183.049 10.5918 181.808 9.6407L181.553 9.45515C180.187 8.48849 178.22 8.00496 175.653 8.00496V7.00496C178.318 7.00496 180.518 7.50235 182.121 8.63191C183.769 9.77021 184.704 11.3894 184.898 13.4073C185.089 15.3573 184.547 17.4975 183.401 19.7921L183.402 19.793C182.755 21.1209 182.04 22.4308 181.258 23.7227L181.253 23.7335C180.624 24.7454 179.948 25.733 179.232 26.7003C179.765 27.222 180.264 27.7277 180.728 28.2169C181.374 28.8963 181.926 29.5156 182.38 30.0743H182.379C183.115 30.9495 183.41 31.9883 183.246 33.1192C183.117 34.2385 182.61 35.1868 181.751 35.9171L181.739 35.9268L181.727 35.9356C180.847 36.6395 179.813 36.9287 178.688 36.7989L178.645 36.793C177.583 36.6232 176.676 36.1254 175.958 35.3223L175.933 35.294L175.911 35.2647C175.61 34.8739 175.224 34.4398 174.746 33.962L174.734 33.9512L174.723 33.9395C174.439 33.6361 174.143 33.3223 173.837 32.9971C171.413 35.4194 168.74 37.6316 165.818 39.6309C162.631 41.8344 159.208 43.7313 155.552 45.3223H155.551C154.532 45.7656 153.473 45.7607 152.438 45.335V45.336C152.435 45.3348 152.432 45.3333 152.429 45.3321C152.426 45.3307 152.422 45.3297 152.419 45.3282V45.3272C151.418 44.9299 150.67 44.217 150.201 43.2364L150.193 43.2208L150.186 43.2042C149.747 42.1937 149.728 41.1406 150.117 40.1036L150.123 40.087L150.13 40.0704C150.558 39.0415 151.291 38.2785 152.304 37.838L152.308 37.836C158.678 35.1018 163.975 31.629 168.221 27.4298C167.761 26.998 167.316 26.5866 166.884 26.1983C166.221 25.6015 165.66 25.1069 165.202 24.7139H165.201C164.35 24.0226 163.84 23.1114 163.71 22.0245C163.624 21.3146 163.717 20.6409 163.979 20.0186C163.646 20.3659 163.308 20.7122 162.965 21.0557L162.966 21.0567C160.902 23.1544 158.892 24.9101 156.937 26.3165L156.936 26.3155C156.046 26.9771 155.011 27.2139 153.901 27.043L153.879 27.0401L153.857 27.0362C152.771 26.819 151.885 26.2399 151.239 25.336L151.23 25.3233L151.221 25.3096C150.615 24.3994 150.392 23.3781 150.565 22.2969L150.569 22.2784L150.572 22.2589C150.789 21.1753 151.366 20.2909 152.266 19.6456L152.971 19.1241C154.607 17.8879 156.181 16.5127 157.696 14.9981L157.703 14.9913C159.465 13.2617 161.028 11.4538 162.393 9.56843L162.395 9.56648C163.797 7.64334 164.911 5.78242 165.746 3.98445L165.751 3.97371C166.224 2.98332 166.995 2.27482 168.018 1.88191ZM168.388 14.9552C167.59 15.9714 166.755 16.9739 165.881 17.961C166.274 17.7647 166.704 17.6366 167.166 17.5792L167.377 17.5577C168.479 17.4395 169.489 17.7245 170.333 18.4288C170.882 18.8753 171.496 19.4038 172.172 20.0118C172.575 20.3746 172.989 20.7507 173.417 21.1378C173.771 20.5963 174.115 20.0494 174.443 19.4952C174.963 18.6172 175.451 17.7229 175.906 16.8126C176.412 15.7654 176.281 15.3919 176.234 15.3175C176.183 15.2373 175.887 14.9552 174.703 14.9552H168.388ZM189.241 0.0069105C189.994 -0.0400893 190.699 0.152798 191.319 0.581129H191.32C191.912 0.988467 192.571 1.54355 193.293 2.23054H193.292C193.984 2.85806 194.576 3.44894 195.063 4.00105C195.652 4.59106 195.961 5.32308 195.957 6.14461L195.952 6.31062C195.906 7.13775 195.599 7.87596 195.038 8.48347C194.433 9.13826 193.642 9.45515 192.753 9.45515H192.725L192.698 9.4532C192.034 9.41631 191.436 9.19855 190.93 8.80867C191.272 9.40481 191.418 10.0634 191.35 10.7628L191.351 10.7637C191.351 10.7725 191.349 10.7814 191.348 10.7901C191.347 10.7985 191.348 10.8071 191.347 10.8155L191.346 10.8145C191.283 11.654 190.895 12.3647 190.254 12.9141L190.249 12.919C189.598 13.4696 188.806 13.6983 187.951 13.6534L187.922 13.6524L187.892 13.6495C187.031 13.5537 186.302 13.1543 185.766 12.4727L185.757 12.46L185.747 12.4464C185.4 11.974 184.934 11.3952 184.343 10.7061L184.326 10.6846C183.765 9.99206 183.257 9.38492 182.8 8.86336V8.86238C182.307 8.31264 182.053 7.64491 182.053 6.90535V6.8741L182.055 6.84285C182.106 6.03833 182.463 5.34938 183.047 4.7989L183.046 4.79793C183.608 4.23545 184.321 3.95364 185.12 4.00691H185.119C185.787 4.01935 186.404 4.22242 186.952 4.59871C186.655 4.16507 186.491 3.66477 186.455 3.12214L186.453 3.08797V3.05476C186.453 2.26911 186.731 1.56028 187.24 0.959059L187.266 0.927809L187.296 0.898512C187.827 0.3672 188.485 0.0570534 189.236 0.0069105H189.241ZM189.303 1.00496C188.803 1.03829 188.369 1.23888 188.003 1.60554C187.636 2.03866 187.453 2.52176 187.453 3.05476C187.486 3.55457 187.67 3.97149 188.003 4.30476C188.536 4.83809 189.103 5.43888 189.703 6.10554L190.156 6.56453C190.587 7.00819 190.953 7.40501 191.253 7.75496C191.603 8.13418 192.03 8.36079 192.533 8.43367L192.753 8.45515C193.307 8.45515 193.772 8.28886 194.147 7.95711L194.303 7.80476C194.703 7.37151 194.919 6.85477 194.953 6.25496C194.986 5.65508 194.786 5.13842 194.353 4.70515C194.003 4.30518 193.587 3.87719 193.106 3.42097L192.603 2.95515C192.078 2.45512 191.6 2.03934 191.169 1.70808L190.753 1.40535C190.319 1.10551 189.837 0.97172 189.303 1.00496ZM183.053 6.90535C183.053 7.40526 183.22 7.83853 183.553 8.20515C184.02 8.7384 184.537 9.3549 185.103 10.0548C185.703 10.7548 186.187 11.3555 186.553 11.8555C186.92 12.3218 187.403 12.5886 188.003 12.6553C188.557 12.6845 189.035 12.5605 189.436 12.2833L189.603 12.1553C190.07 11.7553 190.32 11.2718 190.353 10.7052C190.42 10.1052 190.27 9.55476 189.903 9.05476C189.578 8.62989 189.187 8.16787 188.731 7.66804L188.253 7.15535C187.586 6.45539 187.003 5.90494 186.503 5.50496C186.124 5.21345 185.706 5.04921 185.251 5.01277L185.053 5.00496C184.553 4.97162 184.119 5.13829 183.753 5.50496C183.319 5.90493 183.087 6.37206 183.053 6.90535Z" fill="black"/>
<path d="M134.039 14.3614C135.167 14.2313 136.193 14.5404 137.04 15.2843C137.91 15.9853 138.418 16.9233 138.546 18.0402H138.546C138.678 19.1556 138.355 20.1734 137.626 21.0382L137.627 21.0392C136.209 22.7679 134.344 24.5953 132.046 26.5216L132.039 26.5275C129.74 28.4201 127.177 30.2913 124.351 32.1417C121.525 33.9922 118.614 35.7079 115.62 37.2892C112.616 38.8753 109.69 40.1795 106.839 41.1974L106.838 41.1964C105.786 41.5868 104.715 41.5362 103.686 41.0646L103.679 41.0607L103.671 41.0577C102.67 40.5789 101.957 39.7965 101.567 38.756C101.172 37.703 101.216 36.6375 101.701 35.6241C102.174 34.5997 102.951 33.8628 104.002 33.4689L104.023 33.4611C106.645 32.5433 109.288 31.4107 111.952 30.0626L111.956 30.0607C114.657 28.71 117.225 27.2451 119.659 25.6661C122.128 24.0526 124.361 22.4102 126.36 20.7394L127.104 20.1036C128.795 18.6306 130.183 17.22 131.277 15.8741L131.284 15.8663L131.291 15.8575C132.013 15.0079 132.939 14.4938 134.034 14.3624L134.039 14.3614ZM136.403 16.0548C135.77 15.4883 135.02 15.2556 134.153 15.3556L133.846 15.4064C133.147 15.5559 132.549 15.922 132.053 16.505C130.753 18.105 129.069 19.7717 127.003 21.505C124.969 23.205 122.703 24.8717 120.203 26.505C117.736 28.105 115.136 29.5885 112.403 30.9552L111.391 31.4571C109.032 32.6056 106.686 33.5887 104.353 34.4054C103.553 34.7053 102.97 35.255 102.603 36.0548C102.236 36.8215 102.203 37.6054 102.503 38.4054C102.803 39.2054 103.336 39.7887 104.103 40.1554C104.903 40.5219 105.703 40.5549 106.503 40.255C108.953 39.38 111.467 38.2885 114.045 36.9796L115.153 36.4054C117.749 35.0346 120.281 33.5614 122.749 31.9864L123.803 31.3048C126.603 29.4716 129.136 27.6216 131.403 25.755C133.67 23.855 135.486 22.072 136.853 20.4054C137.42 19.7388 137.653 18.9886 137.553 18.1554C137.453 17.2887 137.07 16.5881 136.403 16.0548ZM103.09 7.73937C104.124 7.50398 105.125 7.68151 106.035 8.2589H106.036C106.954 8.83708 107.982 9.54536 109.118 10.38C110.291 11.1845 111.416 11.9901 112.491 12.796C113.596 13.5998 114.51 14.2935 115.227 14.8741C116.093 15.5671 116.603 16.4938 116.741 17.5968L116.768 17.8058C116.882 18.8414 116.597 19.8015 115.934 20.63C115.24 21.4982 114.312 22.0232 113.205 22.1935L113.188 22.1964L113.172 22.1984C112.068 22.3309 111.05 22.0337 110.178 21.3361L110.159 21.3204C108.914 20.2719 107.516 19.1868 105.966 18.0655L105.956 18.0577L106.553 17.255C108.12 18.3883 109.537 19.4882 110.803 20.5548C111.387 21.0215 112.034 21.246 112.745 21.2277L113.053 21.2052C113.92 21.0718 114.62 20.6716 115.153 20.005C115.686 19.3384 115.886 18.5883 115.753 17.755C115.665 16.9968 115.361 16.3665 114.839 15.8634L114.603 15.6554C113.903 15.0888 113.003 14.4055 111.903 13.6056C110.836 12.8056 109.72 12.0051 108.553 11.2052C107.703 10.5801 106.919 10.0298 106.2 9.5548L105.503 9.10558C104.769 8.63898 103.986 8.52169 103.153 8.755C102.353 8.955 101.719 9.42205 101.253 10.1554L101.105 10.4327C100.795 11.0852 100.728 11.776 100.903 12.505C101.103 13.305 101.57 13.9387 102.303 14.4054C103.57 15.1387 104.987 16.0884 106.553 17.255L105.956 18.0568C104.411 16.9062 103.027 15.9795 101.802 15.2706L101.784 15.2599L101.766 15.2491C100.83 14.6533 100.199 13.8108 99.9332 12.7482L99.9303 12.7384C99.6702 11.6544 99.8259 10.6049 100.392 9.6466L100.4 9.63195L100.409 9.61828C101 8.68972 101.833 8.06172 102.883 7.79211L103.09 7.73937Z" fill="black"/>
<path d="M58.0533 12.0548C58.0533 11.2965 57.8233 10.6402 57.3639 10.0861L57.153 9.85559C56.628 9.33068 56.0011 9.03456 55.2721 8.96887L54.9528 8.9552C54.1195 8.95525 53.3858 9.25564 52.7526 9.85559L52.5416 10.0861C52.0823 10.6401 51.8532 11.2966 51.8531 12.0548V29.2052L51.8571 29.5978C51.9368 33.6111 53.2523 36.2631 55.8033 37.5548C58.3034 38.7735 61.6528 38.7327 65.8522 37.4318L66.7028 37.1554C68.8319 36.4262 70.9613 35.582 73.0905 34.6232L74.0026 34.2052C76.4692 33.0386 78.8026 31.805 81.0026 30.505C83.2359 29.1717 85.2194 27.8383 86.9528 26.505C87.6194 25.9717 88.0031 25.2885 88.1031 24.4552C88.2365 23.5887 88.0532 22.822 87.5533 22.1554C87.0534 21.4993 86.4067 21.1066 85.6139 20.9777L85.4528 20.9552C84.6196 20.8553 83.8529 21.0549 83.153 21.5548C80.5197 23.5547 77.5699 25.4551 74.3033 27.255L73.6969 27.5822C70.6637 29.1954 67.6158 30.4864 64.5533 31.4552L64.1237 31.5861C62.0144 32.2052 60.4909 32.3115 59.5533 31.9054C58.6159 31.4679 58.1178 30.459 58.0592 28.879L58.0533 28.5548V12.0548ZM59.0533 28.5548C59.0533 30.1709 59.5026 30.768 59.9606 30.9904C60.2477 31.1119 60.7234 31.1888 61.4635 31.1222C62.1089 31.0641 62.8984 30.9035 63.8405 30.6271L64.2535 30.5011C67.4523 29.4891 70.6409 28.1158 73.8199 26.379C77.0493 24.5996 79.9584 22.726 82.5485 20.7589L82.5719 20.7413C83.4692 20.1005 84.4844 19.8316 85.5719 19.962H85.5709C86.7088 20.0942 87.6524 20.6358 88.3483 21.549L88.3531 21.5548C89.0169 22.4399 89.2572 23.4692 89.0953 24.5734L89.0963 24.5743C88.9645 25.673 88.4452 26.5923 87.5778 27.2863L87.5699 27.2921L87.5631 27.298C85.7936 28.6592 83.7761 30.0136 81.5153 31.3634L81.5114 31.3663C79.2834 32.6829 76.9227 33.9307 74.4303 35.1095L74.4254 35.1115C71.9615 36.2591 69.4951 37.2564 67.027 38.1017H67.025C62.3271 39.7017 58.3818 39.9249 55.3649 38.4542L55.358 38.4503L55.3512 38.4474C52.243 36.8736 50.8531 33.6298 50.8531 29.2052V12.0548C50.8532 10.9296 51.2539 9.94039 52.0455 9.14856L52.0651 9.12903C52.8745 8.36224 53.8507 7.95525 54.9528 7.9552C56.0783 7.9552 57.068 8.35658 57.86 9.14856C58.6517 9.94042 59.0533 10.9295 59.0533 12.0548V28.5548Z" fill="black"/>
<path d="M15.273 1.63683C16.071 0.948845 17.0236 0.623421 18.0826 0.708117H18.0816C19.1772 0.759767 20.1225 1.19443 20.8599 1.99816L21.0074 2.15245C21.7053 2.92573 22.0209 3.87356 21.9517 4.93077L21.9527 4.93175C21.9186 6.19219 21.8333 7.43699 21.6969 8.66515C21.6066 9.47702 21.5063 10.2965 21.401 11.1232L21.6344 11.1075L21.65 11.1066L21.6666 11.1056C25.375 10.9695 28.378 11.4198 30.5679 12.5704C32.8207 13.7541 34.2516 15.7283 34.8765 18.3751C35.4481 20.796 35.4365 23.9045 34.9039 27.6525L34.7906 28.4103C34.2487 31.8646 33.4626 34.7314 32.4088 36.9796L32.4078 36.9786C31.3958 39.2085 30.128 40.9681 28.5709 42.1915L28.5679 42.1935C27.0648 43.3666 25.3541 44.0841 23.4537 44.3429L23.4547 44.3439C21.601 44.629 19.6102 44.5897 17.4908 44.2423V44.2413C16.3896 44.0641 15.4907 43.4978 14.8394 42.586C14.19 41.6767 13.94 40.6455 14.1158 39.547L14.1178 39.5314L14.1207 39.5167C14.3218 38.4711 14.8428 37.6102 15.6773 36.9933L15.8482 36.8732C16.7625 36.2298 17.799 36.0055 18.8951 36.2237C19.9155 36.4082 20.8117 36.4482 21.5924 36.3614C22.2772 36.2853 22.9079 36.0091 23.4996 35.4982L23.5074 35.4913L23.5162 35.4845C24.1002 35.0021 24.6876 34.1421 25.2232 32.7872L25.2271 32.7765C25.7878 31.4059 26.2898 29.4863 26.7174 26.9864L26.8756 26.0372C27.2039 23.9209 27.2668 22.3954 27.1148 21.4073L27.1138 21.4034C26.951 20.3182 26.5104 19.785 25.9049 19.5226L25.8941 19.5177C25.1402 19.1797 23.8603 18.9896 21.9371 19.0548H21.9029C21.5283 19.0548 20.8495 19.0864 19.8492 19.1525C18.6439 23.989 16.9784 28.5405 14.8472 32.8028C12.6141 37.269 10.0322 41.1117 7.09725 44.3214C6.34527 45.1618 5.37 45.5939 4.24178 45.6036L4.24275 45.6046C4.2294 45.6051 4.21604 45.6052 4.20272 45.6056V45.6046C3.12061 45.6382 2.14926 45.2779 1.3365 44.5509C0.505842 43.8077 0.0478896 42.8546 0.00349696 41.7452V41.7433C-0.0394843 40.6236 0.313861 39.6191 1.05721 38.7882L1.06404 38.7814L1.0699 38.7745C3.60748 36.0418 5.77341 32.9652 7.56697 29.5411L7.56893 29.5382C9.1952 26.4599 10.499 23.1572 11.482 19.629C10.1268 19.704 8.8373 19.7787 7.61385 19.8536H7.60408L7.59432 19.8546C5.99179 19.9214 4.9546 19.9707 4.46932 20.003L4.45662 20.004H4.44295C3.34453 20.048 2.3586 19.6866 1.53572 18.9503L1.52596 18.9405L1.51522 18.9308C0.702377 18.1606 0.247964 17.2016 0.203692 16.0948V16.0939C0.160627 14.9742 0.514118 13.9697 1.2574 13.1388C2.00779 12.3001 2.97999 11.8505 4.10897 11.8058C4.5177 11.7709 5.22933 11.7381 6.22029 11.7062C7.25499 11.6728 8.45554 11.6389 9.82088 11.6056C10.9426 11.5522 12.0644 11.4979 13.1861 11.4444C13.5083 9.23647 13.7154 6.96079 13.8033 4.6173V4.61632C13.8465 3.49484 14.2887 2.52826 15.1148 1.77941L15.273 1.63683ZM18.0025 1.70519C17.1695 1.63865 16.4365 1.90529 15.8033 2.50499C15.17 3.07166 14.8366 3.78872 14.8033 4.65538L14.7584 5.65148C14.6381 7.96651 14.4033 10.2179 14.0533 12.4054C12.6534 12.472 11.253 12.5389 9.85311 12.6056L6.25252 12.7052L4.95272 12.755C4.60283 12.7717 4.33621 12.7881 4.15291 12.8048C3.28625 12.8381 2.56918 13.1715 2.00252 13.8048C1.43594 14.438 1.16948 15.1883 1.20272 16.0548C1.23605 16.8881 1.56945 17.6052 2.20272 18.2052C2.83605 18.7719 3.56958 19.0383 4.40291 19.005C4.65285 18.9883 5.04022 18.9675 5.56502 18.9425L7.5533 18.8556C9.18653 18.7556 10.9368 18.6548 12.8033 18.5548C11.77 22.6548 10.3194 26.4717 8.45272 30.005C6.61942 33.5049 4.40322 36.6552 1.8033 39.4552C1.23664 40.0885 0.969191 40.8385 1.00252 41.7052C1.03585 42.5383 1.36945 43.2382 2.00252 43.8048C2.6358 44.3714 3.36947 44.6389 4.20272 44.6056C5.06938 44.6056 5.78644 44.2887 6.35311 43.6554C9.04059 40.7179 11.4351 37.2237 13.5367 33.173L13.9527 32.3556C16.1527 27.9556 17.8533 23.2385 19.0533 18.2052C20.4531 18.1052 21.403 18.0548 21.9029 18.0548C23.8696 17.9881 25.3366 18.1722 26.3033 18.6056C27.303 19.039 27.9031 19.922 28.1031 21.255C28.3031 22.555 28.1694 24.522 27.7027 27.1554C27.2694 29.6886 26.7529 31.6888 26.1529 33.1554C25.5863 34.5886 24.9195 35.6217 24.1529 36.255C23.4196 36.8883 22.6027 37.2556 21.7027 37.3556L21.3609 37.3859C20.6672 37.4327 19.9171 37.3954 19.1109 37.2735L18.7027 37.2052C17.8695 37.0386 17.1029 37.2052 16.4029 37.7052C15.7029 38.1718 15.2698 38.8385 15.1031 39.7052L15.068 40.0148C15.0206 40.7292 15.2155 41.3926 15.6529 42.005C16.1529 42.705 16.8196 43.1217 17.6529 43.255C19.6862 43.5883 21.57 43.6222 23.3033 43.3556C24.9282 43.1368 26.3922 42.5518 27.6949 41.6007L27.9527 41.4054C29.3527 40.3054 30.5359 38.6881 31.5025 36.5548C32.44 34.5548 33.1725 31.9982 33.6998 28.8849L33.8033 28.255C34.397 24.4738 34.4635 21.4102 34.0025 19.0646L33.9029 18.6056C33.3717 16.3557 32.2251 14.7062 30.4635 13.6573L30.1031 13.4552C28.1364 12.4219 25.336 11.9722 21.7027 12.1056L20.2525 12.2052C20.4192 10.9719 20.5694 9.7548 20.7027 8.5548C20.836 7.35498 20.9194 6.13852 20.9527 4.90538C21.0152 4.09289 20.7847 3.39757 20.2613 2.81945L20.1529 2.70519C19.6571 2.15101 19.0464 1.82634 18.3209 1.73155L18.0025 1.70519Z" fill="black"/>
</svg>
