<svg width="295" height="50" viewBox="0 0 295 50" fill="none" xmlns="http://www.w3.org/2000/svg">
<path d="M285.395 33.5131V28.9633C285.395 27.3301 285.145 26.047 284.645 25.1136C284.207 24.2387 283.462 23.598 282.409 23.1918L282.195 23.1136C281.203 22.7345 279.854 22.5204 278.148 22.473L277.395 22.4633V21.4633C279.51 21.4633 281.252 21.6819 282.552 22.1791H282.551C283.892 22.646 284.923 23.4544 285.526 24.641C286.134 25.7775 286.395 27.2465 286.395 28.9633V33.5131C286.395 35.1975 286.134 36.6522 285.538 37.8099C284.937 39.0124 283.899 39.8474 282.543 40.351L282.535 40.3539L282.528 40.3558C281.323 40.781 279.734 40.982 277.811 41.0072C277.836 41.2984 277.89 41.4932 277.945 41.6185C277.967 41.6369 278.006 41.6632 278.067 41.6937C278.194 41.7574 278.392 41.826 278.682 41.8812C279.284 41.9959 280.305 42.0629 281.795 42.0629V43.0629L280.744 43.0512C279.932 43.0303 279.276 42.9835 278.776 42.9105L278.494 42.8637C277.795 42.7303 277.328 42.4966 277.095 42.1635C276.895 41.7969 276.795 41.2801 276.795 40.6137V40.0131H277.395C279.332 40.0131 280.86 39.8373 281.977 39.4857L282.195 39.4135C283.361 38.9802 284.178 38.2968 284.645 37.3637C285.145 36.397 285.395 35.1131 285.395 33.5131ZM279.645 34.8129C279.578 35.6128 279.328 36.0964 278.895 36.2631C278.461 36.4297 277.645 36.5131 276.445 36.5131H262.945C261.711 36.5131 260.878 36.4297 260.445 36.2631C260.011 36.0963 259.761 35.6127 259.695 34.8129H279.645ZM279.695 30.4135V32.0131H259.645V30.4135H279.695ZM262.945 25.9135H276.445C277.645 25.9135 278.461 26.0133 278.895 26.2133L278.974 26.2484C279.358 26.4399 279.582 26.895 279.645 27.6136H259.695C259.757 26.8951 259.981 26.4399 260.365 26.2484L260.445 26.2133C260.824 26.0382 261.509 25.9402 262.501 25.9183L262.945 25.9135ZM272.145 17.1136C272.145 16.8822 272.164 16.6562 272.203 16.4379C272.027 16.5106 271.846 16.5768 271.657 16.6283L271.616 16.6381C271.201 16.7324 270.792 16.7572 270.392 16.7172C270.603 16.8513 270.798 17.0206 270.969 17.2299C271.413 17.7722 271.645 18.4124 271.645 19.1136C271.645 19.8304 271.423 20.4907 270.969 21.0463L270.953 21.0648L270.938 21.0824C270.804 21.2313 270.657 21.3575 270.501 21.4633H277.395V22.4633H261.945L261.202 22.473C259.518 22.5204 258.166 22.7345 257.145 23.1136L256.93 23.1918C255.877 23.598 255.132 24.2387 254.695 25.1136L254.61 25.2924C254.199 26.2084 253.994 27.4321 253.994 28.9633V33.5131C253.994 35.1131 254.211 36.397 254.645 37.3637C255.111 38.2968 255.895 38.9637 256.994 39.3637C258.128 39.7637 259.678 39.9797 261.645 40.0131C260.245 41.1464 258.478 42.0137 256.345 42.6137C254.245 43.2136 251.728 43.5964 248.795 43.7631L248.551 43.7855C247.997 43.8621 247.545 44.1047 247.195 44.5131C246.795 44.9797 246.611 45.5632 246.645 46.2631C246.711 46.9631 247.012 47.5135 247.545 47.9135C248.112 48.3132 248.761 48.4965 249.494 48.4633C253.661 48.2966 257.295 47.5301 260.395 46.1635C263.528 44.7968 266.028 42.7464 267.895 40.0131H271.145V41.4633L271.157 42.0834C271.216 43.4907 271.478 44.6174 271.945 45.4633C272.511 46.4299 273.545 47.0966 275.045 47.4633C276.545 47.8632 278.695 48.0629 281.494 48.0629C284.227 48.0629 286.394 47.8797 287.994 47.5131C289.594 47.1797 290.811 46.5964 291.645 45.7631C292.478 44.9297 293.078 43.7795 293.445 42.3129C293.619 41.6131 293.616 40.9644 293.434 40.3666L293.345 40.1137C293.078 39.4471 292.562 38.9799 291.795 38.7133C290.962 38.4466 290.178 38.4631 289.445 38.7631C288.711 39.0631 288.228 39.6135 287.994 40.4135L287.916 40.7035C287.723 41.356 287.465 41.8427 287.145 42.1635L286.997 42.2953C286.629 42.5907 286.095 42.7968 285.395 42.9135L285.076 42.9486C284.289 43.0252 283.195 43.0629 281.795 43.0629V42.0629C283.369 42.0629 284.511 42.0135 285.248 41.9232C285.938 41.8059 286.282 41.6124 286.438 41.4564C286.622 41.2725 286.845 40.8886 287.025 40.1703L287.034 40.1332C287.348 39.0583 288.034 38.2594 289.066 37.8373C289.979 37.4637 290.939 37.4327 291.906 37.7025L292.1 37.7611L292.123 37.7689C293.124 38.1169 293.885 38.7693 294.274 39.7416C294.63 40.6315 294.658 41.5835 294.415 42.556C294.017 44.1495 293.345 45.4772 292.352 46.4701C291.337 47.4848 289.918 48.1343 288.198 48.4926L288.197 48.4916C286.494 48.8792 284.249 49.0629 281.494 49.0629C278.677 49.0629 276.431 48.8639 274.807 48.434C273.146 48.0279 271.831 47.2462 271.082 45.9691L271.075 45.9574L271.07 45.9467C270.422 44.7732 270.145 43.249 270.145 41.4633V41.0131H268.412C266.472 43.6886 263.927 45.7116 260.797 47.0775L260.798 47.0785C257.561 48.5054 253.801 49.2904 249.539 49.4613C248.598 49.5039 247.727 49.2655 246.968 48.7299L246.956 48.722L246.945 48.7133C246.172 48.1342 245.741 47.3207 245.65 46.3578L245.647 46.3344L245.646 46.3109C245.602 45.3946 245.846 44.5504 246.436 43.8627C247.031 43.1686 247.83 42.8099 248.744 42.764C251.624 42.6001 254.062 42.2253 256.07 41.6517L256.074 41.6508C256.966 41.3999 257.781 41.1019 258.524 40.7601C257.833 40.6478 257.211 40.4998 256.662 40.306L256.653 40.3031C255.344 39.8272 254.345 39.0013 253.75 37.8109L253.74 37.7914L253.733 37.7719C253.22 36.628 252.994 35.1887 252.994 33.5131V28.9633C252.994 27.2539 253.236 25.7952 253.8 24.6664C254.405 23.4564 255.454 22.6358 256.82 22.1674C257.078 22.0725 257.352 21.9882 257.64 21.9135H255.244C252.745 21.9134 250.713 21.4779 249.403 20.3793L249.396 20.3744L249.39 20.3685C248.059 19.2147 247.545 17.2947 247.545 14.9633V8.31287C247.545 5.98148 248.059 4.06134 249.39 2.90759C250.701 1.76652 252.74 1.31292 255.244 1.31287V2.31287C252.811 2.31292 251.078 2.76357 250.045 3.66345L249.863 3.83338C248.984 4.72585 248.545 6.21902 248.545 8.31287V14.9633L248.551 15.3744C248.61 17.3878 249.108 18.8012 250.045 19.6136C251.014 20.426 252.598 20.8578 254.797 20.9086L255.244 20.9135H268.895L269.101 20.9056C269.501 20.8744 269.826 20.7495 270.076 20.5306L270.195 20.4135C270.457 20.0925 270.605 19.7203 270.638 19.2972L270.645 19.1136C270.645 18.7053 270.53 18.3351 270.3 18.0033L270.195 17.8636C269.895 17.497 269.461 17.3129 268.895 17.3129V16.3129C268.947 16.3129 269 16.3173 269.052 16.3197C268.965 16.2758 268.879 16.2288 268.794 16.1781V16.1791C268.494 16.0051 268.231 15.7978 268.01 15.5619C267.544 15.9153 266.984 16.1612 266.355 16.3129H268.895V17.3129H262.494V15.5131H264.494C266.494 15.5131 267.728 14.9132 268.195 13.7133C268.295 14.4133 268.662 14.9462 269.295 15.3129C269.878 15.6628 270.487 15.7961 271.121 15.7123L271.395 15.6635C272.128 15.4635 272.728 15.0632 273.195 14.4633C273.628 13.9299 274.045 13.3631 274.445 12.7631C274.878 12.1299 275.295 11.4968 275.695 10.8636H290.445L290.725 10.8519C291.268 10.8081 291.718 10.6336 292.074 10.3275L292.244 10.1635C292.623 9.72595 292.838 9.23723 292.885 8.69763L292.895 8.46326C292.895 7.79659 292.678 7.22973 292.244 6.76306C291.811 6.26327 291.211 6.01306 290.445 6.01306V5.01306C291.438 5.01306 292.325 5.3459 292.977 6.0824C293.59 6.74336 293.895 7.5572 293.895 8.46326C293.895 9.3486 293.583 10.1448 293 10.8178L292.989 10.8314L292.978 10.8441C292.317 11.5554 291.428 11.8636 290.445 11.8636H276.239C275.927 12.3481 275.607 12.8328 275.276 13.3168L275.277 13.3178C275.189 13.4489 275.1 13.5781 275.011 13.7064C275.2 13.6778 275.395 13.6635 275.595 13.6635V14.6635L275.326 14.6752C274.714 14.7298 274.203 14.9759 273.795 15.4135C273.362 15.8801 273.145 16.447 273.145 17.1136L273.154 17.3597C273.202 17.9247 273.416 18.4262 273.795 18.8636C274.203 19.2718 274.714 19.5012 275.326 19.5521L275.595 19.5629H287.795L288.073 19.5521C288.704 19.5011 289.195 19.272 289.545 18.8636C289.924 18.4262 290.137 17.9247 290.185 17.3597L290.195 17.1136C290.195 16.4471 289.978 15.8801 289.545 15.4135C289.195 14.9759 288.704 14.7298 288.073 14.6752L287.795 14.6635V13.6635C288.774 13.6635 289.652 13.9885 290.278 14.7328L290.389 14.8588C290.928 15.496 291.195 16.2643 291.195 17.1136C291.194 18.0169 290.893 18.8307 290.303 19.5131L290.304 19.514C289.668 20.2555 288.775 20.5628 287.795 20.5629H275.595C274.629 20.5629 273.764 20.2463 273.088 19.5707L273.063 19.5453L273.039 19.5179C272.447 18.8347 272.145 18.0187 272.145 17.1136ZM257.595 15.5131V17.3129H256.244C255.428 17.3128 254.816 17.2239 254.407 17.0453L254.244 16.9633C253.878 16.7299 253.662 16.2462 253.595 15.5131H257.595ZM287.795 13.6635V14.6635H275.595V13.6635H287.795ZM262.545 10.7133C262.978 10.7133 263.261 10.7637 263.395 10.8636L263.453 10.9076C263.581 11.0279 263.645 11.2636 263.645 11.6136L263.641 11.7572C263.623 12.0779 263.541 12.2968 263.395 12.4135C263.261 12.5134 262.978 12.5628 262.545 12.5629H253.545V10.7133H262.545ZM274.815 0.268923C275.689 -0.0702904 276.59 -0.0905016 277.475 0.219118L277.474 0.220095C278.458 0.529452 279.225 1.14625 279.583 2.11756C279.897 2.9703 279.893 3.84944 279.597 4.71521C279.571 4.81473 279.543 4.91395 279.514 5.01306H290.445V6.01306H278.095C278.195 5.74648 278.295 5.47985 278.395 5.21326C278.495 4.94665 278.578 4.68006 278.645 4.41345C278.849 3.83009 278.874 3.25938 278.721 2.70154L278.645 2.46326C278.441 1.90919 278.032 1.50806 277.42 1.26013L277.145 1.16345C276.478 0.930122 275.811 0.946592 275.145 1.21326C274.478 1.44659 274.028 1.91365 273.795 2.61365C273.295 4.04692 272.562 5.64688 271.595 7.41345L271.241 8.05213C270.41 9.51778 269.528 10.8051 268.595 11.9135C268.528 12.0467 268.478 12.1301 268.445 12.1635V11.6136C268.445 10.27 268.195 9.30702 267.697 8.72498L267.595 8.61365C267.028 8.04698 265.994 7.76306 264.494 7.76306H262.494V5.96326H268.395L268.601 5.95447C269.067 5.91441 269.432 5.73419 269.695 5.41345C269.986 5.09253 270.15 4.72031 270.187 4.29724L270.195 4.11365C270.195 3.64703 270.028 3.23029 269.695 2.86365C269.395 2.49698 268.961 2.31287 268.395 2.31287V1.31287C269.196 1.31287 269.941 1.58493 270.469 2.22986H270.468C270.936 2.76068 271.195 3.39918 271.195 4.11365C271.194 4.84224 270.947 5.50026 270.468 6.04529L270.469 6.04627C270.458 6.05981 270.446 6.07309 270.435 6.08631L270.434 6.08533C269.908 6.70147 269.179 6.96326 268.395 6.96326H266.466C267.197 7.13585 267.829 7.43333 268.302 7.90662C268.72 8.32514 269.001 8.86039 269.181 9.474C269.707 8.69979 270.22 7.85605 270.714 6.93884L270.717 6.93299C271.665 5.20002 272.374 3.6513 272.851 2.28357C273.179 1.31221 273.845 0.608131 274.815 0.268923ZM256.244 5.96326H257.595V7.76306H253.595C253.662 6.99661 253.878 6.5129 254.244 6.31287C254.594 6.10868 255.149 5.99463 255.907 5.96912L256.244 5.96326ZM268.395 1.31287V2.31287H255.244V1.31287H268.395Z" fill="black"/>
<path d="M196.194 25.1136C196.194 23.9881 196.596 22.9984 197.388 22.2064C198.202 21.3926 199.203 20.9633 200.345 20.9633V21.9633L200.184 21.9672C199.385 22.0042 198.689 22.3197 198.095 22.9135L197.884 23.1449C197.425 23.699 197.194 24.3554 197.194 25.1136L197.209 25.433C197.275 26.1657 197.57 26.8095 198.095 27.3636C198.649 27.8886 199.293 28.1838 200.026 28.2494L200.345 28.2631H239.045L239.363 28.2494C239.988 28.1931 240.539 27.9684 241.014 27.5746L241.244 27.3636C241.838 26.77 242.153 26.0734 242.191 25.2748L242.194 25.1136C242.194 24.3012 241.916 23.6058 241.359 23.0277L241.244 22.9135C240.682 22.3197 240.002 22.0042 239.205 21.9672L239.045 21.9633V20.9633C240.17 20.9634 241.15 21.3817 241.932 22.1869C242.763 22.9743 243.194 23.9703 243.194 25.1136C243.194 26.2551 242.765 27.2569 241.951 28.0707C241.159 28.8623 240.17 29.263 239.045 29.2631H200.345C199.221 29.2631 198.225 28.8637 197.407 28.0892L197.387 28.0707L197.368 28.0511C196.594 27.2336 196.195 26.2378 196.194 25.1136ZM239.045 20.9633V21.9633H200.345V20.9633H239.045Z" fill="black"/>
<path d="M169.694 8.51306C169.694 7.64668 169.395 6.93021 168.795 6.36365C168.27 5.83859 167.642 5.54251 166.913 5.47693L166.595 5.46326C165.762 5.46326 165.044 5.76365 164.444 6.36365C163.845 6.93023 163.545 7.64663 163.545 8.51306V43.0629L163.559 43.3705C163.624 44.074 163.92 44.6883 164.444 45.2133C164.969 45.7382 165.584 46.0333 166.287 46.099L166.595 46.1136C167.353 46.1136 168.009 45.8836 168.564 45.4242L168.795 45.2133C169.395 44.6133 169.694 43.8961 169.694 43.0629V23.8636C169.961 24.2969 170.361 24.6633 170.895 24.9633C171.895 25.5299 172.995 26.2131 174.194 27.0131C175.428 27.7797 176.645 28.5801 177.845 29.4135C179.078 30.2467 180.162 31.0298 181.095 31.7631C181.678 32.2297 182.338 32.4667 183.074 32.474L183.395 32.4633C184.261 32.3633 184.961 31.9967 185.494 31.3636C186.061 30.697 186.294 29.9295 186.194 29.0629C186.132 28.2192 185.806 27.5365 185.216 27.015L185.095 26.9135C183.595 25.6468 181.811 24.3464 179.744 23.0131C177.711 21.6798 175.711 20.4965 173.744 19.4633C173.011 19.0967 172.261 19.0298 171.494 19.2631C170.728 19.4631 170.128 19.8964 169.694 20.5629V8.51306ZM170.694 18.4769C170.811 18.4289 170.932 18.3871 171.056 18.349L171.242 18.2953C172.247 17.9996 173.247 18.0967 174.192 18.5687L174.201 18.5736L174.21 18.5785C176.206 19.6271 178.232 20.8255 180.287 22.1732L181.059 22.6781C182.831 23.8545 184.392 25.0112 185.739 26.1488H185.738C186.613 26.8567 187.094 27.8155 187.188 28.9486C187.319 30.0913 187.002 31.1341 186.257 32.0111L186.256 32.0101C185.549 32.8477 184.612 33.3291 183.509 33.4564L183.472 33.4603C182.357 33.546 181.338 33.2391 180.47 32.5443V32.5433C179.561 31.8296 178.5 31.0624 177.285 30.2416L177.275 30.2347C176.088 29.4111 174.886 28.6203 173.667 27.8627L173.64 27.8451C172.573 27.1339 171.591 26.5217 170.694 26.0033V43.0629C170.694 44.1667 170.286 45.1366 169.502 45.9203C168.71 46.7122 167.72 47.1136 166.595 47.1136C165.491 47.1136 164.521 46.704 163.737 45.9203C162.954 45.1366 162.545 44.1667 162.545 43.0629V8.51306C162.545 7.38684 162.947 6.40202 163.758 5.63611C164.538 4.86555 165.5 4.46326 166.595 4.46326C167.711 4.4633 168.692 4.85778 169.481 5.63611C170.292 6.40202 170.694 7.38684 170.694 8.51306V18.4769Z" fill="black"/>
<path d="M135.28 16.1195C136.409 15.9894 137.434 16.2984 138.281 17.0424C139.151 17.7433 139.659 18.6813 139.788 19.7982H139.787C139.92 20.9136 139.597 21.9315 138.867 22.7963L138.868 22.7972C137.451 24.5259 135.585 26.3534 133.287 28.2797L133.28 28.2855C130.982 30.1781 128.419 32.0493 125.593 33.8998C122.767 35.7503 119.856 37.466 116.861 39.0472C113.858 40.6334 110.931 41.9375 108.081 42.9554L108.08 42.9545C107.028 43.3449 105.957 43.2942 104.928 42.8226L104.921 42.8187L104.913 42.8158C103.912 42.3369 103.199 41.5546 102.809 40.514C102.414 39.4611 102.458 38.3956 102.942 37.3822C103.416 36.3578 104.193 35.6209 105.243 35.2269L105.265 35.2191C107.887 34.3013 110.53 33.1688 113.193 31.8207L113.197 31.8187C115.899 30.4681 118.466 29.0031 120.9 27.4242C123.37 25.8107 125.603 24.1683 127.602 22.4974L128.346 21.8617C130.037 20.3886 131.425 18.9781 132.519 17.6322L132.525 17.6244L132.532 17.6156C133.254 16.766 134.181 16.2519 135.275 16.1205L135.28 16.1195ZM137.645 17.8129C137.011 17.2463 136.261 17.0136 135.395 17.1136L135.088 17.1644C134.388 17.3139 133.791 17.68 133.295 18.2631C131.995 19.8631 130.311 21.5297 128.244 23.2631C126.211 24.963 123.944 26.6298 121.444 28.2631C118.978 29.863 116.378 31.3466 113.645 32.7132C110.945 34.0799 108.261 35.2301 105.595 36.1634C104.795 36.4634 104.212 37.0131 103.845 37.8129C103.478 38.5795 103.444 39.3634 103.744 40.1634C104.044 40.9634 104.578 41.5468 105.345 41.9134C106.145 42.28 106.944 42.3129 107.744 42.0131C110.194 41.138 112.709 40.0465 115.286 38.7377L116.395 38.1634C118.99 36.7927 121.522 35.3194 123.99 33.7445L125.045 33.0629C127.845 31.2296 130.378 29.3796 132.645 27.5131C134.911 25.6131 136.728 23.8301 138.095 22.1634C138.626 21.5385 138.864 20.8401 138.81 20.0687L138.795 19.9134C138.695 19.0468 138.311 18.3462 137.645 17.8129ZM104.332 9.49743C105.365 9.26204 106.367 9.43957 107.276 10.017H107.277C108.196 10.5951 109.223 11.3034 110.359 12.1381C111.533 12.9425 112.658 13.7481 113.733 14.5541C114.838 15.3578 115.751 16.0515 116.469 16.6322C117.335 17.3251 117.845 18.2519 117.983 19.3549L118.01 19.5638C118.124 20.5994 117.839 21.5596 117.176 22.3881C116.481 23.2563 115.553 23.7812 114.446 23.9515L114.43 23.9545L114.414 23.9564C113.309 24.089 112.292 23.7917 111.42 23.0941L111.4 23.0785C110.155 22.03 108.758 20.9449 107.208 19.8236L107.197 19.8158L107.795 19.0131C109.362 20.1463 110.778 21.2462 112.045 22.3129C112.628 22.7796 113.275 23.004 113.986 22.9857L114.295 22.9632C115.162 22.8299 115.861 22.4296 116.395 21.7631C116.928 21.0964 117.128 20.3463 116.994 19.5131C116.894 18.6466 116.511 17.9467 115.845 17.4134C115.32 16.9884 114.682 16.498 113.932 15.9418L113.145 15.3636C112.078 14.5637 110.962 13.7632 109.795 12.9632C108.945 12.3382 108.16 11.7879 107.442 11.3129L106.744 10.8636C106.011 10.397 105.228 10.2797 104.395 10.5131C103.595 10.7131 102.961 11.1801 102.494 11.9134L102.347 12.1908C102.037 12.8433 101.97 13.534 102.145 14.2631C102.345 15.0631 102.812 15.6968 103.545 16.1634C104.812 16.8967 106.229 17.8465 107.795 19.0131L107.197 19.8148C105.652 18.6642 104.268 17.7376 103.044 17.0287L103.025 17.0179L103.008 17.0072C102.072 16.4113 101.441 15.5689 101.175 14.5062L101.172 14.4965C100.912 13.4125 101.068 12.363 101.634 11.4047L101.642 11.39L101.65 11.3763C102.241 10.4478 103.075 9.81978 104.125 9.55016L104.332 9.49743Z" fill="black"/>
<path d="M92.3448 35.9633C92.3448 35.0966 92.0115 34.3631 91.3448 33.7631C90.4782 32.9631 89.4113 32.03 88.1446 30.9633C86.9113 29.8633 85.578 28.7131 84.1446 27.5131C83.0697 26.6132 81.9854 25.732 80.8917 24.8695L79.795 24.0131C78.3617 22.8464 76.9944 21.7796 75.6944 20.8129C74.7446 20.0631 73.898 19.4161 73.1544 18.8725L72.4444 18.3637C70.8507 17.2074 69.4034 16.4027 68.1026 15.9496L67.8448 15.8637C66.4783 15.4304 65.0449 15.38 63.545 15.7133C62.0784 16.0466 60.3447 16.7463 58.3448 17.8129L54.9942 19.7133L54.0538 20.2387C53.1228 20.7636 52.2196 21.288 51.3448 21.8129L49.7696 22.7631C49.3031 23.0463 48.895 23.2965 48.545 23.5131L48.2823 23.685C47.6989 24.1079 47.3197 24.6842 47.1446 25.4135L47.0841 25.7231C46.9783 26.4413 47.1152 27.1214 47.4942 27.7631C47.9609 28.4964 48.6112 28.9635 49.4444 29.1635C50.1737 29.3385 50.865 29.2713 51.5177 28.9613L51.795 28.8129C52.4949 28.3797 53.3947 27.8134 54.4942 27.1137L57.9942 24.9633C59.1942 24.23 60.2611 23.5962 61.1944 23.0629C62.1568 22.5088 63.0047 22.1338 63.7374 21.9369L64.045 21.8637C64.8782 21.6638 65.6779 21.6967 66.4444 21.9633C67.2111 22.1966 68.0609 22.6637 68.9942 23.3637C70.2276 24.297 71.6617 25.4133 73.295 26.7133C74.9283 28.0132 76.5951 29.3796 78.295 30.8129C79.995 32.2129 81.5948 33.5802 83.0948 34.9135C84.628 36.2133 85.8947 37.3463 86.8946 38.3129C87.4197 38.838 88.0597 39.1341 88.8146 39.1996L89.1446 39.2133C90.0446 39.18 90.7946 38.8631 91.3946 38.2631C91.9884 37.6381 92.3039 36.9252 92.3409 36.1244L92.3448 35.9633ZM74.8448 14.0131C74.8449 13.2274 75.1223 12.5186 75.631 11.9174L75.6427 11.9037L75.6544 11.891C76.1355 11.3618 76.7491 11.0392 77.462 10.9731V10.9721C78.2204 10.871 78.9358 11.0561 79.5636 11.4906L79.5714 11.4965C79.6147 11.5271 79.6577 11.5599 79.7023 11.5922C79.195 11.1311 78.9365 10.5084 78.8526 9.83731L78.8487 9.80704L78.8468 9.77579C78.7985 9.00377 79.0203 8.29068 79.4864 7.6752H79.4855C79.9185 7.0798 80.5351 6.72509 81.2482 6.58243V6.5834C81.9658 6.40732 82.6709 6.50549 83.3097 6.8793L83.3107 6.87833C84.0135 7.24825 84.8133 7.78582 85.7042 8.4711C86.5853 9.14887 87.3135 9.75344 87.879 10.2836H87.878C88.49 10.8508 88.8437 11.5712 88.8927 12.4047C88.9408 13.2236 88.6924 13.9752 88.1866 14.6225C87.6694 15.2949 86.9437 15.664 86.1046 15.7572C85.2241 15.8549 84.4167 15.5991 83.7442 15.0229L83.715 14.9975L83.6876 14.9701C83.4588 14.7414 83.1081 14.4346 82.6202 14.0443L82.6066 14.0336L82.5939 14.0229C82.5618 13.9954 82.5286 13.9685 82.4962 13.9408C83.0181 14.4348 83.4612 14.8961 83.8165 15.3275H83.8155C84.3293 15.9391 84.5948 16.6639 84.5948 17.4633C84.5948 18.2965 84.2475 19.0304 83.6778 19.644L83.6769 19.643C83.0892 20.2814 82.3047 20.5629 81.4444 20.5629C80.571 20.5628 79.803 20.2336 79.2101 19.5912L79.1925 19.5717C78.993 19.3437 78.6718 19.0213 78.214 18.5961L78.1866 18.5707L78.1622 18.5434C77.7463 18.0955 77.2963 17.6462 76.8126 17.1947L76.7872 17.1713L76.7638 17.1459C76.3019 16.651 75.9105 16.2428 75.588 15.9203C75.0673 15.3996 74.8448 14.7273 74.8448 14.0131ZM82.8448 7.76309C82.4115 7.49642 81.9444 7.42956 81.4444 7.5629C80.9446 7.66288 80.5617 7.89663 80.295 8.26309C79.9617 8.69642 79.8115 9.17995 79.8448 9.71329C79.9115 10.2466 80.1111 10.6468 80.4444 10.9135C80.811 11.2134 81.2444 11.5799 81.7442 12.0131C82.2775 12.4463 82.7777 12.8632 83.2442 13.2631C83.7442 13.663 84.128 13.9964 84.3946 14.2631C84.8612 14.663 85.3944 14.8297 85.9942 14.7631C86.5942 14.6964 87.0613 14.4464 87.3946 14.0131C87.7155 13.6047 87.883 13.1582 87.8976 12.6732L87.8946 12.4633C87.8613 11.8966 87.6278 11.4131 87.1944 11.0131C86.7944 10.6381 86.3005 10.2162 85.713 9.74747L85.0948 9.26309C84.2282 8.59645 83.4782 8.09642 82.8448 7.76309ZM93.3448 35.9633C93.3448 37.103 92.9172 38.1115 92.1192 38.9516L92.1105 38.9613L92.1017 38.9701C91.3115 39.7602 90.317 40.1702 89.1817 40.2123L89.1632 40.2133H89.1446C88.0028 40.2133 86.9973 39.8237 86.1993 39.0316C85.2203 38.0853 83.9713 36.9674 82.4483 35.6762L82.4386 35.6684L82.4298 35.6606C80.9402 34.3365 79.3503 32.9779 77.6593 31.5854L77.6495 31.5775V31.5766C75.9566 30.1492 74.2972 28.7891 72.672 27.4955C71.0446 26.2002 69.6189 25.09 68.3946 24.1635L68.0714 23.9281C67.3316 23.4081 66.6933 23.0846 66.1534 22.9203L66.1349 22.9145L66.1163 22.9076C65.5408 22.7075 64.9364 22.6775 64.2784 22.8354L64.2638 22.8393L64.2482 22.8422C63.5927 22.9788 62.7464 23.3239 61.6935 23.9301L61.6905 23.9311C60.7678 24.4583 59.7098 25.0871 58.5157 25.8168C57.3172 26.5492 56.1523 27.2653 55.0206 27.9643C53.9241 28.662 53.0239 29.2286 52.3214 29.6635L52.3126 29.6693L52.3038 29.6742C51.3454 30.2405 50.2951 30.3963 49.211 30.1361C48.1216 29.8746 47.2542 29.2488 46.6505 28.3002L46.6417 28.2865L46.6339 28.2719C46.0676 27.3136 45.9119 26.2641 46.172 25.1801C46.4347 24.0852 47.0681 23.2248 48.0362 22.6527C48.7398 22.2174 49.6714 21.6507 50.8302 20.9555C52.0052 20.2505 53.2295 19.5461 54.503 18.8422C55.802 18.1094 56.9175 17.4769 57.8487 16.9447L57.8741 16.9311C59.9172 15.8414 61.738 15.098 63.3233 14.7377L63.3273 14.7367C64.9864 14.368 66.6 14.4193 68.1466 14.9096C69.6474 15.3854 71.274 16.2802 73.0196 17.5453C73.9398 18.1928 75.0394 19.0221 76.3146 20.0287C77.6148 20.9962 78.9789 22.0606 80.4064 23.2221L81.5108 24.0844C82.6122 24.9529 83.7039 25.8404 84.7862 26.7465C86.2229 27.9493 87.5615 29.1032 88.8009 30.2084C90.065 31.2732 91.1361 32.2111 92.0128 33.0199C92.8818 33.802 93.3448 34.8021 93.3448 35.9633ZM75.8517 14.1957C75.8844 14.6115 76.0324 14.9507 76.295 15.2133C76.6283 15.5465 77.0277 15.9635 77.4942 16.4633C77.9942 16.93 78.4613 17.397 78.8946 17.8637C79.3612 18.2969 79.7111 18.6469 79.9444 18.9135C80.3444 19.3468 80.8445 19.5628 81.4444 19.5629C82.0777 19.5629 82.5778 19.3632 82.9444 18.9633C83.3237 18.5549 83.5367 18.121 83.5841 17.6615L83.5948 17.4633C83.5948 16.9676 83.4545 16.5229 83.1739 16.1293L83.045 15.9633C82.695 15.5383 82.2419 15.066 81.6857 14.5473L81.0948 14.0131C80.2615 13.2798 79.5609 12.7129 78.9942 12.3129C78.5611 12.0132 78.0946 11.8967 77.5948 11.9633C77.1283 11.9966 76.7279 12.1964 76.3946 12.5629C76.028 12.9962 75.8449 13.4798 75.8448 14.0131L75.8517 14.1957Z" fill="black"/>
<path d="M25.2443 17.1136C27.4025 14.8679 29.2803 12.711 30.8771 10.6439L31.5451 9.76304C31.9824 9.15069 32.1648 8.48717 32.0919 7.7728L32.0451 7.46323C31.8992 6.70483 31.5485 6.0999 30.9943 5.6478L30.7443 5.46323C30.0444 4.96338 29.2777 4.79659 28.4445 4.96323L28.1398 5.03843C27.4472 5.24261 26.8819 5.65063 26.4445 6.26304C25.2112 8.02968 23.6617 9.91346 21.7951 11.9134C19.9617 13.8801 17.9443 15.8462 15.7443 17.8128C13.5776 19.7795 11.345 21.6303 9.04507 23.3636L8.19839 24.0033C6.23337 25.4725 4.33172 26.776 2.49429 27.9134L2.23257 28.0853C1.64926 28.5081 1.26994 29.0838 1.09488 29.8128L1.03433 30.1234C0.928608 30.8416 1.06532 31.5218 1.44449 32.1634C1.91115 32.8967 2.54489 33.3628 3.34488 33.5628C4.07398 33.7378 4.76459 33.6705 5.41714 33.3607L5.69449 33.2132C7.67788 31.959 9.66129 30.5897 11.6447 29.1058L12.4943 28.4632C14.761 26.7299 16.9615 24.9295 19.0949 23.0628V43.0628L19.1085 43.3705C19.1742 44.0739 19.4695 44.6883 19.9943 45.2132C20.5567 45.8069 21.222 46.1223 21.9894 46.1595L22.1447 46.1634C23.0113 46.1634 23.7449 45.8466 24.3449 45.2132C24.9448 44.6132 25.2443 43.8961 25.2443 43.0628V17.1136ZM26.2443 43.0628C26.2443 44.1667 25.8355 45.1366 25.0519 45.9203L25.0509 45.9193C24.2664 46.7377 23.2791 47.1634 22.1447 47.1634C21.0312 47.1634 20.0632 46.7293 19.2873 45.9193V45.9203C18.5037 45.1366 18.0949 44.1667 18.0949 43.0628V25.2416C16.4677 26.6175 14.8033 27.956 13.1017 29.2572C10.813 31.0074 8.52191 32.6078 6.22867 34.058L6.21597 34.0667L6.20327 34.0746C5.24501 34.6407 4.19539 34.7956 3.11148 34.5355L3.10171 34.5335C2.03905 34.2678 1.19663 33.6368 0.600736 32.7005L0.591947 32.6859L0.584134 32.6722C0.0178206 31.7138 -0.137956 30.6635 0.12222 29.5794C0.385017 28.4849 1.01766 27.6241 1.9855 27.0521C4.04841 25.7742 6.19943 24.2803 8.43765 22.5687L8.44253 22.5648C10.7179 20.8501 12.9279 19.0192 15.0724 17.0726L15.0783 17.0677C17.2578 15.1194 19.2529 13.1742 21.0636 11.2318V11.2308C22.9062 9.2566 24.4249 7.41006 25.6251 5.69077L25.631 5.68198L25.755 5.51597C26.3883 4.70712 27.2305 4.18638 28.2482 3.98276C29.3563 3.76114 30.4045 3.99133 31.3263 4.64976H31.3253C32.2424 5.27085 32.811 6.16574 33.0246 7.26694C33.2462 8.37493 33.0168 9.42237 32.3585 10.3441L32.3527 10.3519L32.3478 10.3597C30.651 12.6439 28.6139 15.027 26.2443 17.5121V43.0628Z" fill="black"/>
</svg>
