<svg xmlns="http://www.w3.org/2000/svg" width="200" height="181.492" viewBox="0 0 200 181.492"><path d="M2732,241.51a15.556,15.556,0,0,0-15.442,15.442V407.56A15.556,15.556,0,0,0,2732,423h169.116a15.556,15.556,0,0,0,15.442-15.442V256.952a15.556,15.556,0,0,0-15.442-15.442Zm121.682,11.834a6.246,6.246,0,1,1-6.247,6.245,6.246,6.246,0,0,1,6.247-6.245Zm20.647,0a6.246,6.246,0,1,1-6.247,6.246A6.246,6.246,0,0,1,2874.331,253.344Zm20.647,0a6.246,6.246,0,1,1-6.247,6.246A6.246,6.246,0,0,1,2894.978,253.344ZM2729.8,278.021h173.528V407.56a2.07,2.07,0,0,1-2.206,2.206H2732a2.071,2.071,0,0,1-2.206-2.206Zm103.69,19.22v37.807h49.238V297.241Zm-81.831,4.864v8.206h64.624v-8.206Zm0,25.644v8.206h64.624V327.75Zm0,25.645V361.6H2880.9v-8.206Zm0,25.644v8.206H2880.9v-8.206Z" transform="translate(-2716.561 -241.51)"/></svg>