<svg width="372" height="86" viewBox="0 0 372 86" fill="none" xmlns="http://www.w3.org/2000/svg">
<g clip-path="url(#clip0_2462_87)">
<path d="M53.3 85.79C52.43 86.06 51.61 86.01 50.85 85.64C50.08 85.27 49.53 84.69 49.2 83.89C48.93 83.02 48.98 82.19 49.35 81.39C49.72 80.59 50.33 80.06 51.2 79.79C55.47 78.26 58.95 76.31 61.65 73.94C64.35 71.57 66.33 68.99 67.6 66.19C68.87 63.39 69.5 60.59 69.5 57.79C69.5 54.99 68.87 52.27 67.6 49.64C66.33 47.01 64.35 44.72 61.65 42.79C58.95 40.86 55.46 39.52 51.2 38.79C50.13 44.66 48.48 50.12 46.25 55.19C44.02 60.26 41.37 64.69 38.3 68.49C38.7 69.22 39.11 69.96 39.55 70.69C39.98 71.42 40.43 72.16 40.9 72.89C41.36 73.62 41.52 74.42 41.35 75.29C41.18 76.16 40.73 76.82 40 77.29C39.27 77.76 38.46 77.91 37.6 77.74C36.73 77.57 36.07 77.12 35.6 76.39C35.33 75.86 35.05 75.36 34.75 74.89C34.45 74.42 34.13 73.96 33.8 73.49C30.73 76.36 27.48 78.61 24.05 80.24C20.61 81.87 17.13 82.69 13.6 82.69C9.53 82.69 6.25 81.56 3.75 79.29C1.25 77.02 0 73.46 0 68.59C0 63.72 1.08 59.12 3.25 54.99C5.42 50.86 8.35 47.21 12.05 44.04C15.75 40.87 19.86 38.32 24.4 36.39C24.33 33.86 24.38 31.26 24.55 28.59C24.71 25.92 24.93 23.22 25.2 20.49C17.93 20.89 11.4 20.99 5.6 20.79C4.73 20.72 4 20.37 3.4 19.74C2.8 19.11 2.53 18.36 2.6 17.49C2.67 16.56 3.02 15.81 3.65 15.24C4.28 14.67 5.03 14.42 5.9 14.49C11.83 14.69 18.53 14.59 26 14.19C26.33 12.26 26.67 10.32 27 8.39001C27.33 6.46001 27.73 4.49001 28.2 2.49001C28.33 1.62001 28.77 0.960007 29.5 0.490007C30.23 0.0200071 31.03 -0.109993 31.9 0.0900071C32.77 0.290007 33.43 0.740007 33.9 1.44001C34.36 2.14001 34.53 2.92001 34.4 3.79001C34 5.46001 33.65 7.12001 33.35 8.79001C33.05 10.46 32.77 12.09 32.5 13.69C36.03 13.36 39.48 12.99 42.85 12.59C46.22 12.19 49.27 11.76 52 11.29C52.87 11.16 53.67 11.32 54.4 11.79C55.13 12.26 55.57 12.92 55.7 13.79C55.83 14.66 55.67 15.46 55.2 16.19C54.73 16.92 54.03 17.36 53.1 17.49C50.03 18.02 46.65 18.49 42.95 18.89C39.25 19.29 35.47 19.66 31.6 19.99C31 24.99 30.7 29.72 30.7 34.19C35.23 32.86 39.8 32.19 44.4 32.19C51.13 32.19 56.83 33.34 61.5 35.64C66.17 37.94 69.71 41.02 72.15 44.89C74.58 48.76 75.8 53.06 75.8 57.79C75.8 61.32 75.01 64.89 73.45 68.49C71.88 72.09 69.45 75.41 66.15 78.44C62.85 81.47 58.57 83.92 53.3 85.79ZM13.6 76.49C16.6 76.49 19.57 75.72 22.5 74.19C25.43 72.66 28.23 70.52 30.9 67.79C27.43 60.19 25.36 51.79 24.7 42.59C19.23 45.26 14.8 48.87 11.4 53.44C8 58.01 6.3 63.06 6.3 68.59C6.3 71.46 6.95 73.49 8.25 74.69C9.55 75.89 11.33 76.49 13.6 76.49ZM35.4 62.29C37.67 59.09 39.65 55.46 41.35 51.39C43.05 47.32 44.33 42.96 45.2 38.29H44.4C42 38.22 39.67 38.37 37.4 38.74C35.13 39.11 32.93 39.59 30.8 40.19C31.33 48.32 32.86 55.69 35.4 62.29Z" fill="black"/>
<path d="M157.76 42.27C157.22 41.7 156.55 41.41 155.77 41.41H139.65C139.65 39.02 139.61 36.6 139.54 34.21C139.47 31.67 139.35 29.45 139.21 27.61C139.15 26.79 138.82 26.11 138.22 25.6C137.61 25.09 136.91 24.89 136.16 25C135.39 25.06 134.73 25.39 134.2 25.98C133.66 26.58 133.42 27.3 133.48 28.13C133.63 29.9 133.74 32.04 133.81 34.49C133.88 36.8 133.94 39.11 133.98 41.4H119.31C119.21 39.23 119.1 37.12 118.96 35.15C118.81 32.98 118.61 31.08 118.37 29.54C118.31 28.69 117.94 28.03 117.27 27.57C116.63 27.13 115.89 26.97 115.07 27.08C114.29 27.2 113.67 27.59 113.22 28.25C112.78 28.9 112.61 29.61 112.73 30.37C112.92 31.78 113.11 33.51 113.28 35.51C113.44 37.35 113.56 39.33 113.66 41.39H96.75C95.98 41.39 95.3 41.68 94.73 42.24C94.16 42.8 93.88 43.48 93.88 44.25C93.88 45.02 94.17 45.7 94.74 46.24C95.3 46.77 95.98 47.04 96.75 47.04H113.85C113.93 49.1 113.96 51.14 113.94 53.11C113.91 55.23 113.85 57.16 113.76 58.84C113.7 59.62 113.94 60.32 114.48 60.91C115.01 61.5 115.67 61.83 116.44 61.89C117.27 61.95 117.98 61.71 118.56 61.16C119.12 60.63 119.43 59.97 119.49 59.19C119.63 55.68 119.64 51.6 119.51 47.04H134.01V47.5C134.01 55.2 132.58 61.64 129.75 66.64C126.93 71.62 122.42 75.59 116.37 78.43C115.65 78.73 115.14 79.26 114.87 80.01C114.6 80.74 114.62 81.48 114.93 82.21C115.28 82.92 115.84 83.41 116.57 83.68C116.92 83.8 117.26 83.87 117.61 83.87C117.99 83.87 118.37 83.79 118.74 83.64H118.75C125.66 80.55 130.94 75.9 134.45 69.8C137.95 63.72 139.72 56.22 139.72 47.51V47.05H155.76C156.53 47.05 157.2 46.78 157.74 46.24C158.28 45.7 158.55 45.04 158.55 44.26C158.55 43.48 158.28 42.82 157.75 42.26L157.76 42.27Z" fill="black"/>
<path d="M222.22 48.15C221.5 44.86 219.76 42.45 217.06 40.99C214.41 39.55 210.54 38.9 205.48 39.05C205.29 39.08 204.87 39.13 203.96 39.15C203.35 39.17 202.63 39.2 201.81 39.23C202.58 34.85 203.07 30.42 203.26 26.05C203.32 25.22 203.07 24.51 202.53 23.93C201.99 23.36 201.3 23.07 200.51 23.07C199.74 23.01 199.04 23.25 198.47 23.8C197.91 24.33 197.6 24.99 197.54 25.77C197.44 28.17 197.25 30.56 196.95 32.85C196.67 35.04 196.35 37.24 195.99 39.41C193.9 39.5 191.76 39.59 189.56 39.69L183.39 39.95C181.61 40.02 180.39 40.09 179.75 40.14C178.99 40.2 178.33 40.51 177.77 41.06C177.2 41.63 176.94 42.35 177 43.19C177.06 43.95 177.38 44.62 177.97 45.18C178.57 45.75 179.27 46.01 180.05 45.94C180.64 45.89 181.74 45.82 183.36 45.72C184.98 45.62 186.88 45.52 189.04 45.42C190.98 45.33 192.9 45.25 194.8 45.16C193.2 51.75 190.97 57.99 188.16 63.72C185.27 69.63 181.75 74.82 177.71 79.15C177.18 79.74 176.93 80.43 176.96 81.2C176.99 81.98 177.31 82.64 177.9 83.18C178.48 83.71 179.17 83.97 179.93 83.97C180.69 83.97 181.39 83.67 181.92 83.07C186.22 78.43 190.04 72.68 193.27 66C196.44 59.43 198.93 52.32 200.65 44.87C201.8 44.79 202.83 44.74 203.73 44.71C204.74 44.68 205.42 44.65 205.73 44.6C209.19 44.51 211.83 44.86 213.6 45.66C215.3 46.43 216.32 47.85 216.71 49.99C217.12 52.22 216.95 55.53 216.23 59.82C215.55 63.85 214.69 67.06 213.68 69.38C212.68 71.65 211.52 73.32 210.21 74.32C208.91 75.32 207.46 75.9 205.88 76.07C204.26 76.24 202.5 76.15 200.62 75.82C199.86 75.7 199.14 75.87 198.49 76.31C197.83 76.76 197.44 77.41 197.32 78.23C197.2 79 197.38 79.73 197.85 80.37C198.32 81.02 198.96 81.41 199.73 81.53C203.73 82.18 207.25 81.99 210.17 80.95C213.12 79.91 215.61 77.72 217.56 74.46C219.48 71.24 220.95 66.65 221.94 60.81C222.83 55.6 222.93 51.34 222.23 48.14L222.22 48.15Z" fill="black"/>
<path d="M281.5 51.14C279.79 48.5 277.44 46.42 274.52 44.97C271.61 43.52 268.27 42.79 264.57 42.79C261.56 42.79 258.7 43.29 256.09 44.26C253.47 45.24 251.14 46.65 249.18 48.45C247.21 50.26 245.65 52.42 244.55 54.86C243.44 57.32 242.88 60.03 242.88 62.92C242.88 65.32 243.26 67.51 244.02 69.42C244.79 71.36 245.88 72.91 247.25 74.03C248.66 75.17 250.3 75.75 252.13 75.75C253.81 75.75 255.45 74.99 257.01 73.49C258.49 72.07 259.86 70.04 261.08 67.47C262.29 64.94 263.33 61.87 264.19 58.36C264.99 55.06 265.58 51.39 265.94 47.43C268.49 47.6 270.75 48.22 272.67 49.27C274.75 50.41 276.4 51.96 277.55 53.87C278.7 55.78 279.28 58.01 279.28 60.48C279.28 64.14 278.2 67.18 276.06 69.51C273.89 71.88 270.84 73.56 266.96 74.54C266.34 74.73 265.85 75.1 265.51 75.63C265.16 76.19 265.07 76.85 265.26 77.5C265.41 78.15 265.8 78.67 266.37 79C266.76 79.22 267.16 79.33 267.59 79.33C267.78 79.33 267.98 79.31 268.18 79.26H268.2C273.03 78.01 276.92 75.77 279.77 72.57C282.65 69.35 284.11 65.28 284.11 60.48C284.11 56.93 283.24 53.78 281.53 51.13L281.5 51.14ZM261.19 47.67C260.91 50.71 260.45 53.6 259.84 56.28C259.16 59.24 258.34 61.86 257.42 64.09C256.5 66.29 255.54 68.03 254.55 69.25C253.67 70.34 252.85 70.89 252.13 70.89C250.91 70.89 249.89 70.23 249.03 68.88C248.11 67.44 247.65 65.44 247.65 62.93C247.65 60.42 248.21 58.15 249.31 55.96C250.41 53.77 252.05 51.88 254.21 50.35C256.14 48.98 258.5 48.08 261.22 47.67H261.19Z" fill="black"/>
<path d="M337.66 84.39C332.59 84.39 328.37 84.04 325.01 83.34C321.64 82.64 318.99 81.44 317.06 79.74C315.12 78.04 313.76 75.69 312.96 72.69C312.16 69.69 311.76 65.89 311.76 61.29V25.89C311.76 21.29 312.16 17.47 312.96 14.44C313.76 11.41 315.12 9.04 317.06 7.34C318.99 5.64 321.64 4.44 325.01 3.74C328.38 3.04 332.59 2.69 337.66 2.69H345.56C350.69 2.69 354.93 3.04 358.26 3.74C361.59 4.44 364.21 5.64 366.11 7.34C368.01 9.04 369.36 11.41 370.16 14.44C370.96 17.48 371.36 21.29 371.36 25.89V61.29C371.36 65.89 370.96 69.69 370.16 72.69C369.36 75.69 368.01 78.04 366.11 79.74C364.21 81.44 361.59 82.64 358.26 83.34C354.93 84.04 350.69 84.39 345.56 84.39H337.66ZM318.16 27.59H364.96V25.49C364.96 20.89 364.44 17.39 363.41 14.99C362.37 12.59 360.48 10.97 357.71 10.14C354.94 9.31 350.92 8.89 345.66 8.89H337.56C332.29 8.89 328.26 9.31 325.46 10.14C322.66 10.97 320.74 12.59 319.71 14.99C318.67 17.39 318.16 20.89 318.16 25.49V27.59ZM318.16 52.39H364.96V33.79H318.16V52.39ZM337.56 78.19H345.66C350.93 78.19 354.94 77.77 357.71 76.94C360.48 76.11 362.37 74.49 363.41 72.09C364.44 69.69 364.96 66.19 364.96 61.59V58.69H318.16V61.59C318.16 66.19 318.68 69.69 319.71 72.09C320.74 74.49 322.66 76.11 325.46 76.94C328.26 77.77 332.29 78.19 337.56 78.19Z" fill="black"/>
<path d="M341.56 34.03C346.59 34.03 350.68 38.12 350.68 43.15C350.68 48.18 346.59 52.27 341.56 52.27C336.53 52.27 332.44 48.18 332.44 43.15C332.44 38.12 336.53 34.03 341.56 34.03ZM341.56 29.03C333.76 29.03 327.44 35.35 327.44 43.15C327.44 50.95 333.76 57.27 341.56 57.27C349.36 57.27 355.68 50.95 355.68 43.15C355.68 35.35 349.36 29.03 341.56 29.03Z" fill="black"/>
</g>
<defs>
<clipPath id="clip0_2462_87">
<rect width="371.36" height="85.96" fill="white"/>
</clipPath>
</defs>
</svg>
